<svg width="100%" height="100%" viewBox="0 0 645 645" fill="none" xmlns="http://www.w3.org/2000/svg"><g filter="url(#a)"><circle cx="322.5" cy="322.5" r="322.5" fill="#F9F9F9"/></g><circle cx="322.5" cy="322.5" r="277" fill="#F9F9F9" stroke="#EE964B"/><g filter="url(#b)"><path d="M107.893 107.893a303.5 303.5 0 0 1 429.214 0L322.5 322.5 107.893 107.893Z" fill="#EE964B"/></g><path stroke="#EE964B" d="M561.75 461.433 322.624 323.308M81.751 460.567l241.15-138.875M322.5 600V323m.021.228L109.019 109.727m213.502 212.794 213.502-213.502"/><g filter="url(#c)"><circle cx="322.5" cy="322.5" r="110.5" fill="#F9F9F9"/><circle cx="322.5" cy="322.5" r="110" stroke="#EE964B"/><circle cx="322.5" cy="322.5" r="110" stroke="#000" stroke-opacity=".2"/></g><g filter="url(#d)"><path d="M80.222 310.878c0-6.631.706-11.758 2.119-15.381 1.435-3.623 3.452-6.369 6.05-8.237 2.597-1.869 5.503-2.803 8.715-2.803 3.259 0 6.21.946 8.853 2.837 2.643 1.868 4.728 4.683 6.255 8.442 1.549 3.76 2.324 8.807 2.324 15.142 0 6.312-.763 11.336-2.29 15.073-1.504 3.737-3.589 6.563-6.255 8.477-2.666 1.891-5.628 2.837-8.887 2.837-3.212 0-6.106-.923-8.681-2.769-2.575-1.846-4.592-4.591-6.05-8.237-1.436-3.669-2.153-8.796-2.153-15.381Zm4.75.102c0 5.674.502 9.97 1.505 12.886 1.025 2.894 2.529 5.093 4.511 6.597 1.983 1.504 4.08 2.256 6.29 2.256 2.232 0 4.317-.729 6.254-2.188 1.937-1.481 3.407-3.691 4.409-6.631 1.254-3.577 1.88-7.884 1.88-12.92 0-5.058-.558-9.194-1.675-12.407-1.116-3.235-2.666-5.594-4.648-7.075-1.96-1.504-4.033-2.256-6.22-2.256-2.234 0-4.33.752-6.29 2.256-1.96 1.481-3.452 3.68-4.477 6.597-1.026 2.894-1.538 7.189-1.538 12.885Zm67.675-25.258v4.785h-17.91l-2.495 13.706c2.187-.638 4.158-.957 5.913-.957 4.58 0 8.351 1.538 11.313 4.614 2.985 3.054 4.478 6.973 4.478 11.758 0 3.304-.763 6.335-2.29 9.092-1.527 2.757-3.6 4.876-6.221 6.357-2.597 1.458-5.605 2.188-9.023 2.188-4.079 0-7.52-1.242-10.323-3.726-2.802-2.506-4.477-5.742-5.024-9.707h5.161c.388 1.937 1.037 3.509 1.948 4.717.935 1.208 2.165 2.187 3.692 2.939a11.267 11.267 0 0 0 4.853 1.094c3.304 0 6.141-1.253 8.511-3.76 2.37-2.506 3.555-5.639 3.555-9.399 0-3.395-1.071-6.152-3.213-8.272-2.142-2.119-5.002-3.178-8.579-3.178-2.962 0-6.551.9-10.767 2.7l4.649-24.951h21.772Z" fill="#EE964B"/></g><g filter="url(#e)"><path d="M287.222 131.878c0-6.631.706-11.758 2.119-15.381 1.435-3.623 3.452-6.369 6.05-8.237 2.597-1.869 5.503-2.803 8.715-2.803 3.259 0 6.21.946 8.853 2.837 2.643 1.868 4.728 4.683 6.255 8.442 1.549 3.76 2.324 8.807 2.324 15.142 0 6.312-.763 11.336-2.29 15.073-1.504 3.737-3.589 6.563-6.255 8.477-2.666 1.891-5.628 2.837-8.887 2.837-3.212 0-6.106-.923-8.681-2.769-2.575-1.846-4.592-4.591-6.05-8.237-1.436-3.669-2.153-8.796-2.153-15.381Zm4.751.102c0 5.674.501 9.97 1.504 12.886 1.025 2.894 2.529 5.093 4.511 6.597 1.983 1.504 4.079 2.256 6.289 2.256 2.233 0 4.318-.729 6.255-2.188 1.937-1.481 3.407-3.691 4.409-6.631 1.254-3.577 1.88-7.884 1.88-12.92 0-5.058-.558-9.194-1.675-12.407-1.116-3.235-2.666-5.594-4.648-7.075-1.96-1.504-4.033-2.256-6.221-2.256-2.233 0-4.329.752-6.289 2.256-1.959 1.481-3.452 3.68-4.477 6.597-1.026 2.894-1.538 7.189-1.538 12.885Zm46.209-25.258h9.878V157h-4.99v-45.356h-7.896l3.008-4.922Z" fill="#fff"/></g><g filter="url(#f)"><path d="M485.222 310.878c0-6.631.706-11.758 2.119-15.381 1.435-3.623 3.452-6.369 6.05-8.237 2.597-1.869 5.503-2.803 8.715-2.803 3.259 0 6.21.946 8.853 2.837 2.643 1.868 4.728 4.683 6.255 8.442 1.549 3.76 2.324 8.807 2.324 15.142 0 6.312-.763 11.336-2.29 15.073-1.504 3.737-3.589 6.563-6.255 8.477-2.666 1.891-5.628 2.837-8.887 2.837-3.212 0-6.106-.923-8.681-2.769-2.575-1.846-4.592-4.591-6.05-8.237-1.436-3.669-2.153-8.796-2.153-15.381Zm4.751.102c0 5.674.501 9.97 1.504 12.886 1.025 2.894 2.529 5.093 4.511 6.597 1.983 1.504 4.079 2.256 6.289 2.256 2.233 0 4.318-.729 6.255-2.188 1.937-1.481 3.407-3.691 4.409-6.631 1.254-3.577 1.88-7.884 1.88-12.92 0-5.058-.558-9.194-1.675-12.407-1.116-3.235-2.666-5.594-4.648-7.075-1.96-1.504-4.033-2.256-6.221-2.256-2.233 0-4.329.752-6.289 2.256-1.959 1.481-3.452 3.68-4.477 6.597-1.026 2.894-1.538 7.189-1.538 12.885Zm41.356-9.501h-4.82c.137-4.968 1.789-9.047 4.956-12.237 3.191-3.19 7.121-4.785 11.792-4.785 4.626 0 8.363 1.493 11.211 4.478 2.871 2.985 4.307 6.505 4.307 10.561a16.52 16.52 0 0 1-2.051 8.032c-1.367 2.484-4.022 5.856-7.964 10.118l-12.509 13.5h23.208V336h-34.146l19.209-20.747c3.897-4.17 6.426-7.258 7.588-9.263 1.185-2.028 1.777-4.158 1.777-6.391 0-2.826-1.059-5.253-3.178-7.281-2.097-2.05-4.672-3.076-7.725-3.076-3.213 0-5.89 1.071-8.032 3.213-2.119 2.142-3.327 5.15-3.623 9.024Z" fill="#EE964B"/></g><g filter="url(#g)"><path d="M390.222 501.878c0-6.631.706-11.758 2.119-15.381 1.435-3.623 3.452-6.369 6.05-8.237 2.597-1.869 5.503-2.803 8.715-2.803 3.259 0 6.21.946 8.853 2.837 2.643 1.868 4.728 4.683 6.255 8.442 1.549 3.76 2.324 8.807 2.324 15.142 0 6.312-.763 11.336-2.29 15.073-1.504 3.737-3.589 6.563-6.255 8.477-2.666 1.891-5.628 2.837-8.887 2.837-3.212 0-6.106-.923-8.681-2.769-2.575-1.846-4.592-4.591-6.05-8.237-1.436-3.669-2.153-8.796-2.153-15.381Zm4.751.102c0 5.674.501 9.97 1.504 12.886 1.025 2.894 2.529 5.093 4.511 6.597 1.983 1.504 4.079 2.256 6.289 2.256 2.233 0 4.318-.729 6.255-2.188 1.937-1.481 3.407-3.691 4.409-6.631 1.254-3.577 1.88-7.884 1.88-12.92 0-5.058-.558-9.194-1.675-12.407-1.116-3.235-2.666-5.594-4.648-7.075-1.96-1.504-4.033-2.256-6.221-2.256-2.233 0-4.329.752-6.289 2.256-1.959 1.481-3.452 3.68-4.477 6.597-1.026 2.894-1.538 7.189-1.538 12.885Zm42.518-13.603h-5.127c.934-4.147 2.723-7.337 5.366-9.57 2.643-2.233 5.765-3.35 9.365-3.35 2.621 0 5.059.604 7.315 1.812 2.278 1.184 4.033 2.791 5.263 4.819 1.254 2.028 1.88 4.147 1.88 6.357 0 4.33-2.153 7.759-6.46 10.288 2.416.98 4.398 2.416 5.948 4.307 2.187 2.666 3.281 5.651 3.281 8.955 0 2.848-.752 5.571-2.256 8.169-1.504 2.575-3.555 4.569-6.152 5.982-2.598 1.412-5.503 2.119-8.716 2.119-4.33 0-7.941-1.242-10.835-3.726-2.894-2.506-4.785-6.175-5.674-11.006h4.922c.866 3.259 2.108 5.617 3.726 7.075 2.073 1.846 4.716 2.769 7.929 2.769 3.646 0 6.574-1.094 8.784-3.281 2.211-2.188 3.316-4.751 3.316-7.691 0-1.959-.558-3.794-1.675-5.503-1.094-1.709-2.575-2.996-4.443-3.862-1.846-.866-4.717-1.401-8.614-1.606v-4.615c2.302 0 4.398-.398 6.289-1.196 1.892-.82 3.259-1.857 4.102-3.11.866-1.254 1.299-2.621 1.299-4.102 0-2.187-.877-4.079-2.632-5.674-1.732-1.595-3.931-2.392-6.597-2.392-2.164 0-4.033.615-5.605 1.845-1.572 1.208-2.905 3.27-3.999 6.187Z" fill="#EE964B"/></g><g filter="url(#h)"><path d="M176.222 501.878c0-6.631.706-11.758 2.119-15.381 1.435-3.623 3.452-6.369 6.05-8.237 2.597-1.869 5.503-2.803 8.715-2.803 3.259 0 6.21.946 8.853 2.837 2.643 1.868 4.728 4.683 6.255 8.442 1.549 3.76 2.324 8.807 2.324 15.142 0 6.312-.763 11.336-2.29 15.073-1.504 3.737-3.589 6.563-6.255 8.477-2.666 1.891-5.628 2.837-8.887 2.837-3.212 0-6.106-.923-8.681-2.769-2.575-1.846-4.592-4.591-6.05-8.237-1.436-3.669-2.153-8.796-2.153-15.381Zm4.751.102c0 5.674.501 9.97 1.504 12.886 1.025 2.894 2.529 5.093 4.511 6.597 1.983 1.504 4.079 2.256 6.289 2.256 2.233 0 4.318-.729 6.255-2.188 1.937-1.481 3.407-3.691 4.409-6.631 1.254-3.577 1.88-7.884 1.88-12.92 0-5.058-.558-9.194-1.675-12.407-1.116-3.235-2.666-5.594-4.648-7.075-1.96-1.504-4.033-2.256-6.221-2.256-2.233 0-4.329.752-6.289 2.256-1.959 1.481-3.452 3.68-4.477 6.597-1.026 2.894-1.538 7.189-1.538 12.885Zm63.06-26.523h1.025v35.034h6.084v4.82h-6.084V527h-5.024v-11.689h-24.029l28.028-39.854Zm-3.999 35.034v-20.952l-14.8 20.952h14.8Z" fill="#EE964B"/></g><defs><filter id="a" x="-70" y="-70" width="785" height="785" filterUnits="userSpaceOnUse" color-interpolation-filters="sRGB"><feFlood flood-opacity="0" result="BackgroundImageFix"/><feColorMatrix in="SourceAlpha" values="0 0 0 0 0 0 0 0 0 0 0 0 0 0 0 0 0 0 127 0" result="hardAlpha"/><feOffset dx="20" dy="20"/><feGaussianBlur stdDeviation="25"/><feComposite in2="hardAlpha" operator="out"/><feColorMatrix values="0 0 0 0 0 0 0 0 0 0 0 0 0 0 0 0 0 0 0.05 0"/><feBlend in2="BackgroundImageFix" result="effect1_dropShadow_607_52"/><feColorMatrix in="SourceAlpha" values="0 0 0 0 0 0 0 0 0 0 0 0 0 0 0 0 0 0 127 0" result="hardAlpha"/><feOffset dx="-20" dy="-20"/><feGaussianBlur stdDeviation="25"/><feComposite in2="hardAlpha" operator="out"/><feColorMatrix values="0 0 0 0 1 0 0 0 0 1 0 0 0 0 1 0 0 0 1 0"/><feBlend in2="effect1_dropShadow_607_52" result="effect2_dropShadow_607_52"/><feBlend in="SourceGraphic" in2="effect2_dropShadow_607_52" result="shape"/><feColorMatrix in="SourceAlpha" values="0 0 0 0 0 0 0 0 0 0 0 0 0 0 0 0 0 0 127 0" result="hardAlpha"/><feOffset dx="20" dy="20"/><feGaussianBlur stdDeviation="25"/><feComposite in2="hardAlpha" operator="arithmetic" k2="-1" k3="1"/><feColorMatrix values="0 0 0 0 0 0 0 0 0 0 0 0 0 0 0 0 0 0 0.05 0"/><feBlend in2="shape" result="effect3_innerShadow_607_52"/><feColorMatrix in="SourceAlpha" values="0 0 0 0 0 0 0 0 0 0 0 0 0 0 0 0 0 0 127 0" result="hardAlpha"/><feOffset dx="-20" dy="-20"/><feGaussianBlur stdDeviation="25"/><feComposite in2="hardAlpha" operator="arithmetic" k2="-1" k3="1"/><feColorMatrix values="0 0 0 0 0.976471 0 0 0 0 0.976471 0 0 0 0 0.976471 0 0 0 1 0"/><feBlend in2="effect3_innerShadow_607_52" result="effect4_innerShadow_607_52"/></filter><filter id="b" x="77.893" y="-11" width="509.214" height="383.5" filterUnits="userSpaceOnUse" color-interpolation-filters="sRGB"><feFlood flood-opacity="0" result="BackgroundImageFix"/><feColorMatrix in="SourceAlpha" values="0 0 0 0 0 0 0 0 0 0 0 0 0 0 0 0 0 0 127 0" result="hardAlpha"/><feOffset dx="10" dy="10"/><feGaussianBlur stdDeviation="20"/><feComposite in2="hardAlpha" operator="out"/><feColorMatrix values="0 0 0 0 0.933333 0 0 0 0 0.588235 0 0 0 0 0.294118 0 0 0 0.39 0"/><feBlend in2="BackgroundImageFix" result="effect1_dropShadow_607_52"/><feColorMatrix in="SourceAlpha" values="0 0 0 0 0 0 0 0 0 0 0 0 0 0 0 0 0 0 127 0" result="hardAlpha"/><feOffset dx="-5" dy="-5"/><feGaussianBlur stdDeviation="10"/><feComposite in2="hardAlpha" operator="out"/><feColorMatrix values="0 0 0 0 0.425 0 0 0 0 0.425 0 0 0 0 0.425 0 0 0 0.25 0"/><feBlend in2="effect1_dropShadow_607_52" result="effect2_dropShadow_607_52"/><feBlend in="SourceGraphic" in2="effect2_dropShadow_607_52" result="shape"/></filter><filter id="c" x="208" y="212" width="229" height="229" filterUnits="userSpaceOnUse" color-interpolation-filters="sRGB"><feFlood flood-opacity="0" result="BackgroundImageFix"/><feColorMatrix in="SourceAlpha" values="0 0 0 0 0 0 0 0 0 0 0 0 0 0 0 0 0 0 127 0" result="hardAlpha"/><feOffset dy="4"/><feGaussianBlur stdDeviation="2"/><feComposite in2="hardAlpha" operator="out"/><feColorMatrix values="0 0 0 0 0 0 0 0 0 0 0 0 0 0 0 0 0 0 0.25 0"/><feBlend in2="BackgroundImageFix" result="effect1_dropShadow_607_52"/><feBlend in="SourceGraphic" in2="effect1_dropShadow_607_52" result="shape"/></filter><filter id="d" x="30.222" y="254.457" width="173.724" height="152.808" filterUnits="userSpaceOnUse" color-interpolation-filters="sRGB"><feFlood flood-opacity="0" result="BackgroundImageFix"/><feColorMatrix in="SourceAlpha" values="0 0 0 0 0 0 0 0 0 0 0 0 0 0 0 0 0 0 127 0" result="hardAlpha"/><feOffset dy="20"/><feGaussianBlur stdDeviation="25"/><feComposite in2="hardAlpha" operator="out"/><feColorMatrix values="0 0 0 0 0 0 0 0 0 0 0 0 0 0 0 0 0 0 0.2 0"/><feBlend in2="BackgroundImageFix" result="effect1_dropShadow_607_52"/><feBlend in="SourceGraphic" in2="effect1_dropShadow_607_52" result="shape"/></filter><filter id="e" x="237.222" y="75.457" width="160.838" height="152.808" filterUnits="userSpaceOnUse" color-interpolation-filters="sRGB"><feFlood flood-opacity="0" result="BackgroundImageFix"/><feColorMatrix in="SourceAlpha" values="0 0 0 0 0 0 0 0 0 0 0 0 0 0 0 0 0 0 127 0" result="hardAlpha"/><feOffset dy="20"/><feGaussianBlur stdDeviation="25"/><feComposite in2="hardAlpha" operator="out"/><feColorMatrix values="0 0 0 0 0 0 0 0 0 0 0 0 0 0 0 0 0 0 0.3 0"/><feBlend in2="BackgroundImageFix" result="effect1_dropShadow_607_52"/><feBlend in="SourceGraphic" in2="effect1_dropShadow_607_52" result="shape"/></filter><filter id="f" x="435.222" y="254.457" width="174.237" height="152.808" filterUnits="userSpaceOnUse" color-interpolation-filters="sRGB"><feFlood flood-opacity="0" result="BackgroundImageFix"/><feColorMatrix in="SourceAlpha" values="0 0 0 0 0 0 0 0 0 0 0 0 0 0 0 0 0 0 127 0" result="hardAlpha"/><feOffset dy="20"/><feGaussianBlur stdDeviation="25"/><feComposite in2="hardAlpha" operator="out"/><feColorMatrix values="0 0 0 0 0 0 0 0 0 0 0 0 0 0 0 0 0 0 0.2 0"/><feBlend in2="BackgroundImageFix" result="effect1_dropShadow_607_52"/><feBlend in="SourceGraphic" in2="effect1_dropShadow_607_52" result="shape"/></filter><filter id="g" x="340.222" y="445.457" width="174.1" height="152.808" filterUnits="userSpaceOnUse" color-interpolation-filters="sRGB"><feFlood flood-opacity="0" result="BackgroundImageFix"/><feColorMatrix in="SourceAlpha" values="0 0 0 0 0 0 0 0 0 0 0 0 0 0 0 0 0 0 127 0" result="hardAlpha"/><feOffset dy="20"/><feGaussianBlur stdDeviation="25"/><feComposite in2="hardAlpha" operator="out"/><feColorMatrix values="0 0 0 0 0 0 0 0 0 0 0 0 0 0 0 0 0 0 0.2 0"/><feBlend in2="BackgroundImageFix" result="effect1_dropShadow_607_52"/><feBlend in="SourceGraphic" in2="effect1_dropShadow_607_52" result="shape"/></filter><filter id="h" x="126.222" y="445.457" width="174.92" height="152.808" filterUnits="userSpaceOnUse" color-interpolation-filters="sRGB"><feFlood flood-opacity="0" result="BackgroundImageFix"/><feColorMatrix in="SourceAlpha" values="0 0 0 0 0 0 0 0 0 0 0 0 0 0 0 0 0 0 127 0" result="hardAlpha"/><feOffset dy="20"/><feGaussianBlur stdDeviation="25"/><feComposite in2="hardAlpha" operator="out"/><feColorMatrix values="0 0 0 0 0 0 0 0 0 0 0 0 0 0 0 0 0 0 0.2 0"/><feBlend in2="BackgroundImageFix" result="effect1_dropShadow_607_52"/><feBlend in="SourceGraphic" in2="effect1_dropShadow_607_52" result="shape"/></filter></defs></svg>