<svg width="47" height="47" fill="none" xmlns="http://www.w3.org/2000/svg"><path d="M23.5 43.083c-10.815 0-19.583-8.767-19.583-19.583 0-10.816 8.768-19.583 19.583-19.583 10.816 0 19.584 8.767 19.584 19.583-.012 10.81-8.773 19.572-19.584 19.583Zm0-35.25c-8.652 0-15.666 7.014-15.666 15.667 0 8.653 7.014 15.667 15.666 15.667 8.653 0 15.667-7.014 15.667-15.667-.01-8.648-7.018-15.657-15.667-15.667Zm0 27.417a9.472 9.472 0 0 1-7.833-3.917 12.337 12.337 0 0 1-1.958-3.916h19.583v.015a12.577 12.577 0 0 1-1.958 3.901A9.474 9.474 0 0 1 23.5 35.25ZM16.646 23.5a2.937 2.937 0 1 1 0-5.875 2.937 2.937 0 0 1 0 5.875Zm13.695-.027a2.924 2.924 0 1 1 0-5.848 2.924 2.924 0 0 1 0 5.848Z" fill="#232323"/></svg>