<svg width="208" height="34" fill="none" xmlns="http://www.w3.org/2000/svg"><path d="M.649 8.406h2.375v3.213c.832-1.185 1.687-2.05 2.564-2.598 1.208-.729 2.478-1.093 3.81-1.093.901 0 1.755.176 2.564.53.81.353 1.47.826 1.983 1.418.512.581.957 1.418 1.333 2.512.797-1.458 1.794-2.563 2.99-3.315 1.197-.764 2.484-1.145 3.863-1.145 1.287 0 2.42.324 3.4.974.992.65 1.727 1.555 2.205 2.717.479 1.162.718 2.905.718 5.23V27H26.01V16.849c0-1.994-.142-3.361-.427-4.102a3.685 3.685 0 0 0-1.47-1.812c-.683-.455-1.504-.683-2.46-.683a5.422 5.422 0 0 0-3.197 1.025c-.956.684-1.657 1.595-2.101 2.735-.445 1.139-.667 3.042-.667 5.708V27h-2.376v-9.519c0-2.245-.142-3.766-.427-4.563a3.735 3.735 0 0 0-1.452-1.931c-.695-.49-1.521-.735-2.478-.735-1.106 0-2.142.336-3.11 1.008-.958.661-1.67 1.555-2.137 2.683-.456 1.128-.684 2.854-.684 5.179V27H.65V8.406Zm30.864 0h2.53l6.391 14.321 6.204-14.32h2.546L38.093 33.801h-2.53l3.59-8.203-7.64-17.193ZM64.65 1.23c3.806 0 6.99 1.27 9.554 3.81 2.563 2.541 3.845 5.669 3.845 9.383 0 3.68-1.282 6.802-3.845 9.365-2.552 2.564-5.668 3.845-9.348 3.845-3.726 0-6.87-1.276-9.434-3.828-2.564-2.552-3.845-5.64-3.845-9.262 0-2.416.58-4.655 1.743-6.717 1.173-2.062 2.768-3.674 4.785-4.836a12.79 12.79 0 0 1 6.545-1.76Zm.12 2.46c-1.857 0-3.617.485-5.28 1.453-1.664.969-2.963 2.273-3.897 3.914-.935 1.64-1.402 3.469-1.402 5.486 0 2.984 1.031 5.508 3.094 7.57 2.073 2.051 4.568 3.077 7.485 3.077 1.948 0 3.748-.473 5.4-1.419 1.664-.946 2.957-2.239 3.88-3.88.934-1.64 1.401-3.463 1.401-5.468 0-1.994-.467-3.794-1.401-5.4-.923-1.618-2.228-2.911-3.914-3.88-1.686-.968-3.475-1.453-5.366-1.453Zm17.961 4.717h2.376v3.418c.946-1.299 2.034-2.273 3.264-2.922 1.23-.65 2.603-.974 4.119-.974 2.643 0 4.904.951 6.784 2.854 1.88 1.902 2.82 4.192 2.82 6.87 0 2.734-.934 5.058-2.802 6.973-1.858 1.902-4.102 2.854-6.734 2.854-1.481 0-2.843-.308-4.084-.923-1.242-.616-2.365-1.533-3.367-2.752v9.998H82.73V8.406Zm9.57 1.829c-2.073 0-3.822.723-5.246 2.17-1.413 1.447-2.119 3.247-2.119 5.4 0 1.413.313 2.684.94 3.812.638 1.128 1.544 2.022 2.717 2.683 1.185.66 2.433.991 3.743.991 1.287 0 2.495-.33 3.623-.991 1.14-.672 2.045-1.607 2.717-2.803.672-1.196 1.009-2.45 1.009-3.76a7.505 7.505 0 0 0-1.009-3.76c-.66-1.184-1.555-2.101-2.683-2.75a7.173 7.173 0 0 0-3.691-.992Zm16.373-8.733h2.409v6.904h3.794v2.051h-3.794V27h-2.409V10.457h-3.264v-2.05h3.264V1.501ZM119.287.75a1.91 1.91 0 0 1 1.401.581c.387.387.581.855.581 1.401 0 .536-.194.997-.581 1.385a1.91 1.91 0 0 1-1.401.58c-.536 0-.997-.193-1.385-.58a1.892 1.892 0 0 1-.581-1.385c0-.546.194-1.014.581-1.401a1.892 1.892 0 0 1 1.385-.581Zm-1.197 7.656h2.41V27h-2.41V8.406Zm7.349 0h2.375v3.213c.832-1.185 1.687-2.05 2.564-2.598 1.208-.729 2.478-1.093 3.811-1.093.9 0 1.755.176 2.563.53.809.353 1.47.826 1.983 1.418.513.581.957 1.418 1.333 2.512.797-1.458 1.794-2.563 2.991-3.315 1.196-.764 2.483-1.145 3.862-1.145 1.287 0 2.421.324 3.401.974.991.65 1.726 1.555 2.204 2.717.479 1.162.718 2.905.718 5.23V27H150.8V16.849c0-1.994-.142-3.361-.427-4.102a3.687 3.687 0 0 0-1.47-1.812c-.683-.455-1.504-.683-2.461-.683a5.418 5.418 0 0 0-3.195 1.025c-.957.684-1.658 1.595-2.102 2.735-.445 1.139-.667 3.042-.667 5.708V27h-2.375v-9.519c0-2.245-.143-3.766-.428-4.563a3.732 3.732 0 0 0-1.452-1.931c-.695-.49-1.521-.735-2.478-.735-1.106 0-2.142.336-3.111 1.008-.957.661-1.669 1.555-2.136 2.683-.456 1.128-.684 2.854-.684 5.179V27h-2.375V8.406Zm32.556 0h2.41v8.682c0 2.119.114 3.577.342 4.375.341 1.14.991 2.04 1.948 2.7.968.66 2.119.991 3.452.991 1.333 0 2.461-.319 3.384-.957.934-.65 1.578-1.498 1.931-2.546.239-.718.359-2.239.359-4.563V8.406h2.444v9.126c0 2.564-.302 4.495-.906 5.794a6.844 6.844 0 0 1-2.7 3.059c-1.197.729-2.701 1.093-4.512 1.093-1.812 0-3.327-.364-4.546-1.093-1.208-.74-2.113-1.766-2.717-3.076-.593-1.322-.889-3.304-.889-5.948V8.406Zm21.585 0h2.375v3.213c.832-1.185 1.686-2.05 2.564-2.598 1.207-.729 2.478-1.093 3.811-1.093.9 0 1.754.176 2.563.53.809.353 1.47.826 1.982 1.418.513.581.958 1.418 1.333 2.512.798-1.458 1.795-2.563 2.991-3.315 1.197-.764 2.484-1.145 3.863-1.145 1.287 0 2.421.324 3.4.974.992.65 1.726 1.555 2.205 2.717.479 1.162.718 2.905.718 5.23V27h-2.444V16.849c0-1.994-.142-3.361-.427-4.102a3.687 3.687 0 0 0-1.47-1.812c-.684-.455-1.504-.683-2.461-.683a5.424 5.424 0 0 0-3.196 1.025c-.957.684-1.658 1.595-2.102 2.735-.444 1.139-.666 3.042-.666 5.708V27h-2.376v-9.519c0-2.245-.142-3.766-.427-4.563a3.739 3.739 0 0 0-1.453-1.931c-.695-.49-1.521-.735-2.478-.735-1.105 0-2.142.336-3.11 1.008-.957.661-1.669 1.555-2.136 2.683-.456 1.128-.684 2.854-.684 5.179V27h-2.375V8.406Z" fill="#161616" fill-opacity=".8"/></svg>