<svg width="47" height="47" fill="none" xmlns="http://www.w3.org/2000/svg"><path d="M23.5 41.125c-1.263-1.12-2.69-2.285-4.2-3.525h-.02c-5.317-4.347-11.343-9.267-14.004-15.16a14.535 14.535 0 0 1-1.359-5.989 10.556 10.556 0 0 1 10.77-10.575A12.06 12.06 0 0 1 21.206 7.8 10.968 10.968 0 0 1 23.5 9.792 11.317 11.317 0 0 1 25.797 7.8a12.048 12.048 0 0 1 6.516-1.925 10.555 10.555 0 0 1 10.77 10.575 14.536 14.536 0 0 1-1.358 5.998c-2.662 5.895-8.686 10.813-14.003 15.152l-.019.016c-1.512 1.232-2.938 2.397-4.2 3.525l-.003-.016ZM14.688 9.792a6.923 6.923 0 0 0-4.896 1.943 6.545 6.545 0 0 0-1.958 4.715 10.682 10.682 0 0 0 1.002 4.363 24.118 24.118 0 0 0 5.008 6.8c1.94 1.958 4.173 3.854 6.104 5.448.535.44 1.079.885 1.623 1.33l.343.28c.523.426 1.063.869 1.586 1.304l.026-.024.012-.01h.011l.018-.013h.02l.035-.03.08-.064.014-.012.021-.016h.012l.018-.015 1.3-1.068.34-.28c.551-.448 1.096-.893 1.63-1.333 1.931-1.594 4.166-3.488 6.106-5.456a24.09 24.09 0 0 0 5.008-6.798 10.65 10.65 0 0 0 1.016-4.406 6.547 6.547 0 0 0-1.958-4.7 6.923 6.923 0 0 0-4.896-1.958 7.81 7.81 0 0 0-5.856 2.567L23.5 15.767l-2.957-3.408a7.81 7.81 0 0 0-5.855-2.567Z" fill="#232323"/></svg>