<svg width="53" height="53" fill="none" xmlns="http://www.w3.org/2000/svg"><g clip-path="url(#a)" fill="#EE964B"><path d="M53 28.158c-.138.967-.242 1.947-.403 2.913-1.711 10.26-9.695 18.791-19.819 21.19C18.808 55.573 4.93 47.462.995 33.68c-3.27-11.44 1.722-23.913 11.99-29.966 1.557-.918 3.385-.513 4.307.951a3.188 3.188 0 0 1-1.01 4.4c-3.588 2.179-6.304 5.12-8.079 8.915-5.552 11.882 1.614 25.88 14.513 28.367 11.04 2.128 21.76-5.29 23.677-16.386a20.186 20.186 0 0 0-9.426-20.735c-1.19-.723-1.794-1.717-1.69-3.124.171-2.308 2.596-3.667 4.584-2.455a29.294 29.294 0 0 1 4.257 3.093c4.872 4.344 7.715 9.8 8.653 16.264.088.612.153 1.227.229 1.842v3.312Z"/><path d="M27.024 0c1.16.334 2.052.966 2.398 2.187.095.348.141.708.138 1.07.009 6.292.009 12.585 0 18.878 0 2.07-1.458 3.424-3.42 3.24a3.019 3.019 0 0 1-2.644-2.52 7.15 7.15 0 0 1-.057-.98V3.721c0-2.17.543-2.962 2.546-3.726l1.04.005Z"/></g><defs><clipPath id="a"><path fill="#fff" d="M0 0h53v53H0z"/></clipPath></defs></svg>