<svg width="30" height="30" fill="none" xmlns="http://www.w3.org/2000/svg"><path d="M10.498 0h8.983l.52.048c1.128.102 2.276.104 3.38.325 2.924.587 4.96 2.282 5.988 5.11.497 1.37.612 2.8.616 4.24.01 3.439.027 6.878-.01 10.316-.01 1.089-.087 2.194-.294 3.26-.562 2.875-2.21 4.908-4.968 5.982-1.332.518-2.735.656-4.148.67-3.169.032-6.34.059-9.51.044-1.561-.008-3.131-.014-4.668-.387-2.487-.602-4.335-2.01-5.434-4.337-.677-1.431-.883-2.97-.9-4.534-.034-3.242-.07-6.486-.044-9.73.003-1.366.102-2.731.294-4.084.31-2.1 1.324-3.843 3.044-5.132C4.82.686 6.53.247 8.333.117 9.053.07 9.776.04 10.498 0Zm4.53 27.363v-.046c.791 0 1.587.023 2.377-.005 1.7-.059 3.412-.045 5.094-.25 2.22-.271 3.741-1.528 4.412-3.707.308-.998.36-2.037.373-3.072.031-2.658.069-5.315.045-7.972-.014-1.58-.054-3.169-.235-4.736-.278-2.408-1.808-4.046-4.187-4.518-1.037-.207-2.117-.268-3.176-.285a390.212 390.212 0 0 0-7.866-.027c-1.506.005-3.015-.015-4.507.247-2.28.4-3.844 1.843-4.309 4.108-.2.977-.268 1.994-.289 2.995-.054 2.413-.07 4.824-.044 7.24.019 1.687.068 3.38.225 5.059.147 1.56.862 2.87 2.189 3.782 1.024.705 2.196.973 3.412 1.02 2.159.082 4.32.116 6.482.167h.003Z" fill="#F9F9F9"/><path d="M7.291 15.019c-.015-4.245 3.459-7.715 7.723-7.715a7.72 7.72 0 0 1 5.453 2.247 7.696 7.696 0 0 1 2.268 5.437c.028 4.242-3.435 7.72-7.707 7.734-4.25.015-7.722-3.44-7.737-7.703Zm7.706 4.987a5.009 5.009 0 0 0 4.633-3.07 4.988 4.988 0 0 0-1.07-5.45 5.006 5.006 0 0 0-8.177 5.43 4.98 4.98 0 0 0 2.703 2.71 4.996 4.996 0 0 0 1.915.38h-.004Zm8.086-14.803a1.8 1.8 0 0 1 1.757 1.836 1.792 1.792 0 0 1-1.148 1.633 1.8 1.8 0 0 1-2.448-1.715 1.794 1.794 0 0 1 1.838-1.754h.001Z" fill="#F9F9F9"/></svg>