<svg viewBox="0 0 1776 844" fill="none" xmlns="http://www.w3.org/2000/svg"><circle cx="262.5" cy="648.5" r="101.5" fill="#EE964B"/><circle cx="262.5" cy="648.5" r="87" stroke="#fff"/><path d="M193.789 634.635h2.832c1.139 0 2.015.136 2.627.41.612.267 1.094.68 1.445 1.24.358.56.537 1.182.537 1.865 0 .638-.156 1.221-.468 1.748-.313.521-.772.944-1.377 1.27.748.254 1.325.553 1.728.898.404.339.716.752.938 1.241.228.481.342 1.005.342 1.572 0 1.152-.424 2.129-1.27 2.93-.84.794-1.969 1.191-3.389 1.191h-3.945v-14.365Zm1.406 1.406v4.6h.821c.996 0 1.728-.092 2.197-.274.469-.189.84-.482 1.113-.879.274-.403.41-.849.41-1.338 0-.657-.231-1.171-.693-1.543-.456-.377-1.185-.566-2.188-.566h-1.66Zm0 6.045v5.508h1.778c1.048 0 1.816-.101 2.304-.303a2.616 2.616 0 0 0 1.172-.967c.3-.436.449-.908.449-1.416 0-.638-.208-1.194-.625-1.67-.416-.475-.989-.8-1.718-.976-.489-.117-1.338-.176-2.549-.176h-.811Zm15.344-3.984c1.634 0 2.988.592 4.063 1.777.976 1.081 1.464 2.36 1.464 3.838 0 1.484-.517 2.783-1.552 3.896-1.029 1.107-2.354 1.66-3.975 1.66-1.628 0-2.959-.553-3.994-1.66-1.029-1.113-1.543-2.412-1.543-3.896 0-1.472.488-2.748 1.465-3.828 1.074-1.192 2.431-1.787 4.072-1.787Zm0 1.337c-1.133 0-2.106.42-2.92 1.26-.814.84-1.221 1.856-1.221 3.047 0 .768.186 1.484.557 2.149a3.986 3.986 0 0 0 1.504 1.543 4.144 4.144 0 0 0 2.08.537c.755 0 1.449-.179 2.08-.537a3.986 3.986 0 0 0 1.504-1.543 4.34 4.34 0 0 0 .557-2.149c0-1.191-.41-2.207-1.231-3.047-.814-.84-1.784-1.26-2.91-1.26Zm18.889 1.143-1.084.674c-.938-1.244-2.217-1.865-3.838-1.865-1.296 0-2.373.416-3.233 1.25-.852.833-1.279 1.845-1.279 3.037 0 .774.195 1.504.586 2.187a4.188 4.188 0 0 0 1.621 1.592c.69.378 1.462.566 2.315.566 1.562 0 2.838-.621 3.828-1.865l1.084.713a5.14 5.14 0 0 1-2.051 1.777c-.853.417-1.826.625-2.92.625-1.68 0-3.073-.533-4.18-1.601-1.106-1.068-1.66-2.367-1.66-3.897 0-1.028.257-1.982.772-2.861a5.496 5.496 0 0 1 2.138-2.07c.905-.495 1.918-.742 3.037-.742.704 0 1.381.107 2.032.322.657.215 1.214.495 1.67.84.455.345.843.784 1.162 1.318Zm3.136-2.207h8.916V649h-1.367v-9.336h-6.181V649h-1.368v-10.625Zm17.502-.273c1.635 0 2.989.592 4.063 1.777.976 1.081 1.465 2.36 1.465 3.838 0 1.484-.518 2.783-1.553 3.896-1.029 1.107-2.353 1.66-3.975 1.66-1.627 0-2.959-.553-3.994-1.66-1.028-1.113-1.543-2.412-1.543-3.896 0-1.472.489-2.748 1.465-3.828 1.074-1.192 2.432-1.787 4.072-1.787Zm0 1.337c-1.132 0-2.106.42-2.92 1.26-.813.84-1.22 1.856-1.22 3.047 0 .768.185 1.484.556 2.149a4 4 0 0 0 1.504 1.543 4.146 4.146 0 0 0 2.08.537c.756 0 1.449-.179 2.08-.537a3.986 3.986 0 0 0 1.504-1.543 4.34 4.34 0 0 0 .557-2.149c0-1.191-.41-2.207-1.23-3.047-.814-.84-1.784-1.26-2.911-1.26ZM267.637 649h-1.455l-3.555-7.734-3.525 7.734h-1.465l4.863-10.625h.244L267.637 649Zm10.148-5.117h-6.172V649h-1.377v-10.625h1.377v4.219h6.172v-4.219h1.367V649h-1.367v-5.117Zm13.869 1.592 1.153.605c-.378.742-.814 1.341-1.309 1.797a5.262 5.262 0 0 1-1.67 1.045c-.618.234-1.318.351-2.099.351-1.732 0-3.086-.566-4.063-1.699-.977-1.139-1.465-2.425-1.465-3.857a5.69 5.69 0 0 1 1.24-3.604c1.049-1.341 2.452-2.011 4.209-2.011 1.81 0 3.256.686 4.336 2.06.769.97 1.159 2.181 1.172 3.633h-9.551c.026 1.237.42 2.253 1.182 3.047.762.788 1.703 1.181 2.822 1.181.541 0 1.065-.094 1.573-.283.514-.189.95-.439 1.308-.752.358-.312.746-.817 1.162-1.513Zm0-2.862c-.182-.729-.449-1.312-.8-1.748-.346-.436-.805-.788-1.377-1.054a4.231 4.231 0 0 0-1.807-.401c-1.042 0-1.937.335-2.686 1.006-.546.488-.96 1.221-1.24 2.197h7.91Zm12.112 1.27h-6.172V649h-1.377v-10.625h1.377v4.219h6.172v-4.219h1.367V649h-1.367v-5.117Zm6.291-5.508v7.861l7.802-7.861h.108V649H316.6v-7.793L308.855 649h-.166v-10.625h1.368Zm20.402 7.1 1.152.605c-.377.742-.813 1.341-1.308 1.797a5.273 5.273 0 0 1-1.67 1.045c-.619.234-1.319.351-2.1.351-1.732 0-3.086-.566-4.062-1.699-.977-1.139-1.465-2.425-1.465-3.857 0-1.348.413-2.549 1.24-3.604 1.048-1.341 2.451-2.011 4.209-2.011 1.81 0 3.255.686 4.336 2.06.768.97 1.159 2.181 1.172 3.633h-9.551c.026 1.237.42 2.253 1.182 3.047.761.788 1.702 1.181 2.822 1.181.54 0 1.064-.094 1.572-.283a4.12 4.12 0 0 0 1.309-.752c.358-.312.745-.817 1.162-1.513Zm0-2.862c-.182-.729-.449-1.312-.801-1.748-.345-.436-.804-.788-1.377-1.054a4.227 4.227 0 0 0-1.806-.401c-1.042 0-1.937.335-2.686 1.006-.547.488-.96 1.221-1.24 2.197h7.91Zm-125.643 30.225 4.102-9.463h.713l4.072 9.463h1.279v2.519h-1.318V674h-8.789v1.416h-1.348v-2.578h1.289Zm4.434-7.354-3.105 7.354h6.084l-2.979-7.354Zm17.033 4.991 1.153.605c-.378.742-.814 1.341-1.309 1.797a5.262 5.262 0 0 1-1.67 1.045c-.618.234-1.318.351-2.1.351-1.731 0-3.086-.566-4.062-1.699-.977-1.139-1.465-2.425-1.465-3.857 0-1.348.413-2.549 1.24-3.604 1.048-1.341 2.451-2.011 4.209-2.011 1.81 0 3.256.686 4.336 2.06.768.97 1.159 2.181 1.172 3.633h-9.551c.026 1.237.42 2.253 1.182 3.047.762.788 1.702 1.181 2.822 1.181.541 0 1.065-.094 1.572-.283a4.12 4.12 0 0 0 1.309-.752c.358-.312.746-.817 1.162-1.513Zm0-2.862c-.182-.729-.449-1.312-.801-1.748-.345-.436-.804-.788-1.377-1.054a4.223 4.223 0 0 0-1.806-.401c-1.042 0-1.937.335-2.686 1.006-.547.488-.96 1.221-1.24 2.197h7.91Zm13.186-8.34h1.357v5.704c.853-1.211 2.08-1.817 3.682-1.817 1.543 0 2.835.524 3.877 1.572 1.048 1.049 1.572 2.393 1.572 4.034 0 1.621-.527 2.952-1.582 3.994-1.055 1.041-2.331 1.562-3.828 1.562-1.641 0-2.881-.638-3.721-1.914v5.479h-1.357v-5.479c-.827 1.283-2.077 1.924-3.75 1.924-1.472 0-2.738-.521-3.799-1.562-1.055-1.042-1.582-2.377-1.582-4.004 0-1.641.521-2.985 1.562-4.034 1.049-1.048 2.344-1.572 3.887-1.572 1.634 0 2.861.606 3.682 1.817v-5.704Zm1.318 9.668c0 1.27.361 2.266 1.084 2.989.723.722 1.553 1.084 2.49 1.084 1.276 0 2.299-.424 3.067-1.27.768-.846 1.152-1.865 1.152-3.056 0-1.231-.407-2.253-1.221-3.067-.807-.814-1.777-1.221-2.91-1.221-1.022 0-1.888.365-2.597 1.094-.71.723-1.065 1.872-1.065 3.447Zm-9.072-.244c0 1.185.381 2.201 1.142 3.047.769.846 1.794 1.27 3.077 1.27.442 0 .918-.111 1.425-.332.508-.228.915-.511 1.221-.85.313-.345.547-.742.703-1.191.156-.45.235-1.107.235-1.973 0-1.38-.358-2.435-1.075-3.164-.716-.736-1.582-1.104-2.597-1.104-1.14 0-2.113.407-2.92 1.221-.808.814-1.211 1.839-1.211 3.076Zm22.639-5.322v7.861l7.802-7.861h.108V674h-1.368v-7.793L253.152 674h-.166v-10.625h1.368ZM275.742 674h-9.931v-10.625h1.377v9.336h6.171v-9.336h1.377v9.336h2.295v2.969h-1.289V674Zm5.002-10.625v7.861l7.803-7.861h.107V674h-1.367v-7.793L279.543 674h-.166v-10.625h1.367Zm10.266 0h6.992v1.182h-2.813V674h-1.377v-9.443h-2.802v-1.182Zm14.377-.273c1.634 0 2.988.592 4.062 1.777.977 1.081 1.465 2.36 1.465 3.838 0 1.484-.518 2.783-1.553 3.896-1.028 1.107-2.353 1.66-3.974 1.66-1.628 0-2.959-.553-3.994-1.66-1.029-1.113-1.543-2.412-1.543-3.896 0-1.472.488-2.748 1.464-3.828 1.075-1.192 2.432-1.787 4.073-1.787Zm0 1.337c-1.133 0-2.106.42-2.92 1.26-.814.84-1.221 1.856-1.221 3.047 0 .768.186 1.484.557 2.149a3.986 3.986 0 0 0 1.504 1.543 4.144 4.144 0 0 0 2.08.537c.755 0 1.448-.179 2.08-.537a3.993 3.993 0 0 0 1.504-1.543 4.339 4.339 0 0 0 .556-2.149c0-1.191-.41-2.207-1.23-3.047-.814-.84-1.784-1.26-2.91-1.26ZM317.049 674h-3.086v-10.625H317c1.159 0 1.992.267 2.5.801.514.534.771 1.159.771 1.875 0 1.081-.475 1.813-1.425 2.197 1.38.488 2.07 1.429 2.07 2.822 0 1.953-1.289 2.93-3.867 2.93Zm-1.709-9.443v3.32h.889c.807 0 1.334-.033 1.582-.098.247-.065.478-.224.693-.478.221-.261.332-.602.332-1.026 0-.442-.114-.813-.342-1.113-.228-.299-.469-.475-.723-.527-.247-.052-.761-.078-1.542-.078h-.889Zm0 4.57v3.721h1.465c.69 0 1.181-.043 1.474-.127.3-.091.554-.283.762-.576.215-.293.322-.665.322-1.114 0-.579-.182-1.041-.547-1.386-.364-.346-.846-.518-1.445-.518h-2.031Z" fill="#fff"/><path d="m1387 241-.77-2.377-.63.202-.44.483L1387 241Zm-194.94 215.817a2.493 2.493 0 0 0-.15-3.533 2.498 2.498 0 0 0-3.53.149l3.68 3.384Zm5.28-13.134a2.502 2.502 0 0 0 .15 3.533c1.02.934 2.6.867 3.53-.149l-3.68-3.384Zm7.13-.366a2.502 2.502 0 0 0-.15-3.533 2.498 2.498 0 0 0-3.53.149l3.68 3.384Zm5.28-13.134a2.493 2.493 0 0 0 .15 3.533c1.01.934 2.6.867 3.53-.149l-3.68-3.384Zm7.13-.366a2.51 2.51 0 0 0-.15-3.533 2.51 2.51 0 0 0-3.54.149l3.69 3.384Zm5.27-13.134a2.51 2.51 0 0 0 .15 3.533 2.51 2.51 0 0 0 3.54-.149l-3.69-3.384Zm7.13-.366a2.493 2.493 0 0 0-.15-3.533 2.498 2.498 0 0 0-3.53.149l3.68 3.384Zm5.28-13.134a2.502 2.502 0 0 0 .15 3.533c1.02.934 2.6.867 3.53-.149l-3.68-3.384Zm7.13-.366a2.502 2.502 0 0 0-.15-3.533 2.498 2.498 0 0 0-3.53.149l3.68 3.384Zm5.28-13.134a2.493 2.493 0 0 0 .15 3.533c1.01.934 2.59.867 3.53-.149l-3.68-3.384Zm7.13-.366a2.51 2.51 0 0 0-.15-3.533 2.51 2.51 0 0 0-3.54.149l3.69 3.384Zm5.27-13.134a2.51 2.51 0 0 0 .15 3.533 2.51 2.51 0 0 0 3.54-.149l-3.69-3.384Zm7.13-.366a2.493 2.493 0 0 0-.15-3.533 2.498 2.498 0 0 0-3.53.149l3.68 3.384Zm5.28-13.134a2.502 2.502 0 0 0 .15 3.533c1.02.934 2.6.867 3.53-.149l-3.68-3.384Zm7.13-.366a2.502 2.502 0 0 0-.15-3.533 2.498 2.498 0 0 0-3.53.149l3.68 3.384Zm5.28-13.134a2.493 2.493 0 0 0 .15 3.533c1.01.934 2.59.867 3.53-.149l-3.68-3.384Zm7.12-.366a2.493 2.493 0 0 0-.15-3.533 2.498 2.498 0 0 0-3.53.149l3.68 3.384Zm5.28-13.134a2.502 2.502 0 0 0 .15 3.533c1.02.934 2.6.867 3.53-.149l-3.68-3.384Zm7.13-.366a2.502 2.502 0 0 0-.15-3.533 2.498 2.498 0 0 0-3.53.149l3.68 3.384Zm5.28-13.134a2.493 2.493 0 0 0 .15 3.533c1.01.934 2.6.867 3.53-.149l-3.68-3.384Zm7.13-.366a2.51 2.51 0 0 0-.15-3.533 2.51 2.51 0 0 0-3.54.149l3.69 3.384Zm5.27-13.134a2.51 2.51 0 0 0 .15 3.533 2.51 2.51 0 0 0 3.54-.149l-3.69-3.384Zm7.13-.366a2.493 2.493 0 0 0-.15-3.533 2.498 2.498 0 0 0-3.53.149l3.68 3.384Zm5.28-13.134a2.502 2.502 0 0 0 .15 3.533c1.02.934 2.6.867 3.53-.149l-3.68-3.384Zm7.13-.366a2.502 2.502 0 0 0-.15-3.533 2.498 2.498 0 0 0-3.53.149l3.68 3.384Zm5.28-13.134a2.493 2.493 0 0 0 .15 3.533c1.01.934 2.59.867 3.53-.149l-3.68-3.384Zm7.13-.366a2.51 2.51 0 0 0-.15-3.533 2.51 2.51 0 0 0-3.54.149l3.69 3.384Zm5.27-13.134a2.51 2.51 0 0 0 .15 3.533 2.51 2.51 0 0 0 3.54-.149l-3.69-3.384Zm7.13-.366a2.493 2.493 0 0 0-.15-3.533 2.498 2.498 0 0 0-3.53.149l3.68 3.384Zm5.28-13.134a2.502 2.502 0 0 0 .15 3.533c1.02.934 2.6.867 3.53-.149l-3.68-3.384Zm7.13-.366a2.502 2.502 0 0 0-.15-3.533 2.498 2.498 0 0 0-3.53.149l3.68 3.384Zm5.28-13.134a2.493 2.493 0 0 0 .15 3.533c1.01.934 2.59.867 3.53-.149l-3.68-3.384Zm6.77 1.401a2.504 2.504 0 0 0 1.61-3.151 2.502 2.502 0 0 0-3.15-1.604l1.54 4.755Zm11.15-8.882a2.503 2.503 0 0 0-1.61 3.151 2.502 2.502 0 0 0 3.15 1.604l-1.54-4.755Zm6.43 3.168a2.502 2.502 0 0 0-1.55-4.755l1.55 4.755Zm11.14-8.882a2.51 2.51 0 0 0-1.61 3.15 2.509 2.509 0 0 0 3.16 1.605l-1.55-4.755Zm6.43 3.167a2.497 2.497 0 0 0 1.6-3.15 2.502 2.502 0 0 0-3.15-1.605l1.55 4.755Zm11.14-8.882a2.498 2.498 0 0 0-1.6 3.151 2.493 2.493 0 0 0 3.15 1.604l-1.55-4.755Zm6.43 3.168a2.498 2.498 0 0 0 1.6-3.151 2.498 2.498 0 0 0-3.15-1.604l1.55 4.755Zm11.14-8.882a2.498 2.498 0 0 0-1.6 3.151 2.498 2.498 0 0 0 3.15 1.604l-1.55-4.755Zm6.43 3.168a2.498 2.498 0 0 0 1.6-3.151 2.493 2.493 0 0 0-3.15-1.604l1.55 4.755Zm11.14-8.882a2.497 2.497 0 0 0-1.6 3.15 2.502 2.502 0 0 0 3.15 1.605l-1.55-4.755Zm6.43 3.167a2.51 2.51 0 0 0 1.61-3.15 2.509 2.509 0 0 0-3.16-1.605l1.55 4.755Zm11.14-8.882a2.502 2.502 0 0 0 1.55 4.755l-1.55-4.755Zm6.43 3.168a2.503 2.503 0 0 0 1.61-3.151 2.502 2.502 0 0 0-3.15-1.604l1.54 4.755Zm11.15-8.882a2.504 2.504 0 0 0-1.61 3.151 2.502 2.502 0 0 0 3.15 1.604l-1.54-4.755Zm6.42 3.168a2.504 2.504 0 0 0 1.61-3.151 2.502 2.502 0 0 0-3.15-1.604l1.54 4.755Zm11.15-8.882a2.503 2.503 0 0 0-1.61 3.151 2.502 2.502 0 0 0 3.15 1.604l-1.54-4.755Zm6.43 3.168a2.502 2.502 0 0 0-1.55-4.755l1.55 4.755Zm11.14-8.882a2.51 2.51 0 0 0-1.61 3.15 2.509 2.509 0 0 0 3.16 1.605l-1.55-4.755Zm6.43 3.167a2.497 2.497 0 0 0 1.6-3.15 2.502 2.502 0 0 0-3.15-1.605l1.55 4.755Zm11.14-8.882a2.498 2.498 0 0 0-1.6 3.151 2.493 2.493 0 0 0 3.15 1.604l-1.55-4.755Zm6.43 3.168a2.498 2.498 0 0 0 1.6-3.151 2.498 2.498 0 0 0-3.15-1.604l1.55 4.755Zm11.14-8.882a2.498 2.498 0 0 0-1.6 3.151 2.498 2.498 0 0 0 3.15 1.604l-1.55-4.755Zm6.43 3.168a2.498 2.498 0 0 0 1.6-3.151 2.493 2.493 0 0 0-3.15-1.604l1.55 4.755Zm11.14-8.882a2.497 2.497 0 0 0-1.6 3.15 2.502 2.502 0 0 0 3.15 1.605l-1.55-4.755Zm6.43 3.167a2.51 2.51 0 0 0 1.61-3.15 2.509 2.509 0 0 0-3.16-1.605l1.55 4.755Zm11.14-8.882a2.502 2.502 0 0 0 1.55 4.755l-1.55-4.755Zm6.43 3.168a2.503 2.503 0 0 0 1.61-3.151 2.502 2.502 0 0 0-3.15-1.604l1.54 4.755Zm11.15-8.882a2.504 2.504 0 0 0-1.61 3.151 2.502 2.502 0 0 0 3.15 1.604l-1.54-4.755Zm-439.45 299.276 1.72-1.875-3.68-3.384-1.72 1.875 3.68 3.384Zm10.68-11.625 3.45-3.75-3.68-3.384-3.45 3.75 3.68 3.384Zm12.41-13.5 3.45-3.75-3.69-3.384-3.44 3.75 3.68 3.384Zm12.41-13.5 3.44-3.75-3.68-3.384-3.45 3.75 3.69 3.384Zm12.4-13.5 3.45-3.75-3.68-3.384-3.45 3.75 3.68 3.384Zm12.41-13.5 3.45-3.75-3.69-3.384-3.44 3.75 3.68 3.384Zm12.41-13.5 3.44-3.75-3.68-3.384-3.45 3.75 3.69 3.384Zm12.4-13.5 3.45-3.75-3.68-3.384-3.45 3.75 3.68 3.384Zm12.41-13.5 3.44-3.75-3.68-3.384-3.44 3.75 3.68 3.384Zm12.4-13.5 3.45-3.75-3.68-3.384-3.45 3.75 3.68 3.384Zm12.41-13.5 3.45-3.75-3.69-3.384-3.44 3.75 3.68 3.384Zm12.41-13.5 3.44-3.75-3.68-3.384-3.45 3.75 3.69 3.384Zm12.4-13.5 3.45-3.75-3.68-3.384-3.45 3.75 3.68 3.384Zm12.41-13.5 3.45-3.75-3.69-3.384-3.44 3.75 3.68 3.384Zm12.41-13.5 3.44-3.75-3.68-3.384-3.45 3.75 3.69 3.384Zm12.4-13.5 3.45-3.75-3.68-3.384-3.45 3.75 3.68 3.384Zm12.41-13.5 1.72-1.875-3.68-3.384-1.72 1.875 3.68 3.384Zm.65-1.19 2.44-.793-1.54-4.755-2.44.794 1.54 4.754Zm15.13-4.92 4.89-1.587-1.55-4.755-4.88 1.587 1.54 4.755Zm17.58-5.714 4.88-1.588-1.55-4.755-4.88 1.588 1.55 4.755Zm17.57-5.715 4.88-1.587-1.55-4.755-4.88 1.587 1.55 4.755Zm17.57-5.714 4.88-1.587-1.55-4.755-4.88 1.587 1.55 4.755Zm17.57-5.714 4.88-1.588-1.55-4.755-4.88 1.588 1.55 4.755Zm17.57-5.715 4.88-1.587-1.54-4.755-4.89 1.587 1.55 4.755Zm17.57-5.714 4.88-1.587-1.54-4.755-4.88 1.587 1.54 4.755Zm17.57-5.714 4.89-1.587-1.55-4.755-4.88 1.587 1.54 4.755Zm17.58-5.714 4.88-1.588-1.55-4.755-4.88 1.588 1.55 4.755Zm17.57-5.715 4.88-1.587-1.55-4.755-4.88 1.587 1.55 4.755Zm17.57-5.714 4.88-1.587-1.55-4.755-4.88 1.587 1.55 4.755Zm17.57-5.714 4.88-1.588-1.55-4.755-4.88 1.588 1.55 4.755Zm17.57-5.715 4.88-1.587-1.54-4.755-4.89 1.587 1.55 4.755Zm17.57-5.714 2.44-.794-1.54-4.754-2.44.793 1.54 4.755Z" fill="#EE964B"/><path d="m217 376.5 307.5 102.828M801.5 313l356 168m-838 130 205-131.672m0 0 5 1.672 68 207.5 39-49.5L777 371" stroke="#EE964B" stroke-width="5"/><g filter="url(#a)"><circle cx="206.5" cy="343.5" r="146.5" fill="#EE964B"/></g><circle cx="206.5" cy="343.5" r="125" stroke="#fff"/><path d="M119.986 320.635h10.196V335h-1.446v-12.998h-7.304V335h-1.446v-14.365Zm13.987 3.74h1.357v1.953c.54-.742 1.162-1.299 1.865-1.67.703-.371 1.488-.556 2.354-.556 1.51 0 2.803.543 3.877 1.63 1.074 1.088 1.611 2.396 1.611 3.926 0 1.563-.534 2.891-1.601 3.985-1.062 1.087-2.344 1.63-3.848 1.63a5.18 5.18 0 0 1-2.334-.527c-.71-.351-1.351-.876-1.924-1.572v5.713h-1.357v-14.512Zm5.468 1.045c-1.184 0-2.184.413-2.998 1.24-.807.827-1.211 1.856-1.211 3.086 0 .807.179 1.533.538 2.178a3.999 3.999 0 0 0 1.552 1.533c.677.378 1.39.566 2.139.566a4.02 4.02 0 0 0 2.07-.566 4.218 4.218 0 0 0 1.553-1.602 4.288 4.288 0 0 0 0-4.296 4.055 4.055 0 0 0-1.533-1.573 4.107 4.107 0 0 0-2.11-.566Zm10.032-1.045v7.861l7.802-7.861h.108V335h-1.367v-7.793L148.271 335h-.166v-10.625h1.368Zm20.402 7.1 1.152.605c-.377.742-.813 1.341-1.308 1.797a5.273 5.273 0 0 1-1.67 1.045c-.619.234-1.319.351-2.1.351-1.732 0-3.086-.566-4.062-1.699-.977-1.139-1.465-2.425-1.465-3.857 0-1.348.413-2.549 1.24-3.604 1.048-1.341 2.451-2.011 4.209-2.011 1.81 0 3.255.686 4.336 2.06.768.97 1.159 2.181 1.172 3.633h-9.551c.026 1.237.42 2.253 1.182 3.047.761.788 1.702 1.181 2.822 1.181.54 0 1.064-.094 1.572-.283a4.12 4.12 0 0 0 1.309-.752c.358-.312.745-.817 1.162-1.513Zm0-2.862c-.182-.729-.449-1.312-.801-1.748-.345-.436-.804-.788-1.377-1.054a4.227 4.227 0 0 0-1.806-.401c-1.042 0-1.937.335-2.686 1.006-.547.488-.96 1.221-1.24 2.197h7.91Zm16.096-4.238h.39L189.965 335h-1.426l-2.627-7.822L181.83 335h-.254l-4.092-7.822-2.617 7.822h-1.426l3.623-10.625h.372l4.277 8.311 4.258-8.311Zm18.041 0h1.386v4.697l5.079-4.697h1.669l-5.019 4.736 5.4 5.889h-1.748l-4.599-5.137-.782.655V335h-1.386v-4.482l-.762-.655-4.58 5.137h-1.748l5.342-5.889-4.942-4.736h1.67l5.02 4.697v-4.697Zm11.808 0v7.861l7.803-7.861h.107V335h-1.367v-7.793L214.619 335h-.166v-10.625h1.367Zm13.235 4.473h.713c.455 0 .872-.15 1.25-.45.384-.299.576-.729.576-1.289 0-.475-.153-.882-.459-1.22-.306-.345-.775-.518-1.406-.518-.736 0-1.475.287-2.217.859l-.772-.947c.957-.801 1.973-1.201 3.047-1.201.886 0 1.628.264 2.227.791s.898 1.208.898 2.041c0 1.107-.488 1.859-1.465 2.256 1.276.534 1.914 1.468 1.914 2.803 0 .846-.299 1.611-.898 2.295-.593.677-1.481 1.015-2.666 1.015-1.452 0-2.621-.472-3.506-1.416l.859-.976c.658.742 1.501 1.113 2.53 1.113.69 0 1.23-.186 1.621-.557.397-.371.595-.859.595-1.465 0-.592-.198-1.067-.595-1.425a2.031 2.031 0 0 0-1.406-.537h-.84v-1.172Zm14.728 1.035h-6.172V335h-1.377v-10.625h1.377v4.219h6.172v-4.219h1.367V335h-1.367v-5.117Zm13.869 1.592 1.153.605c-.378.742-.814 1.341-1.309 1.797a5.262 5.262 0 0 1-1.67 1.045c-.618.234-1.318.351-2.099.351-1.732 0-3.086-.566-4.063-1.699-.976-1.139-1.465-2.425-1.465-3.857a5.69 5.69 0 0 1 1.24-3.604c1.049-1.341 2.452-2.011 4.209-2.011 1.81 0 3.256.686 4.336 2.06.769.97 1.159 2.181 1.172 3.633h-9.551c.027 1.237.42 2.253 1.182 3.047.762.788 1.703 1.181 2.822 1.181.541 0 1.065-.094 1.573-.283.514-.189.95-.439 1.308-.752.358-.312.746-.817 1.162-1.513Zm0-2.862c-.182-.729-.449-1.312-.8-1.748-.345-.436-.804-.788-1.377-1.054a4.231 4.231 0 0 0-1.807-.401c-1.042 0-1.937.335-2.686 1.006-.546.488-.96 1.221-1.24 2.197h7.91Zm12.112 1.27h-6.172V335h-1.377v-10.625h1.377v4.219h6.172v-4.219h1.367V335h-1.367v-5.117Zm12.472 0h-6.172V335h-1.376v-10.625h1.376v4.219h6.172v-4.219h1.368V335h-1.368v-5.117Zm9.953-5.781c1.635 0 2.989.592 4.063 1.777.977 1.081 1.465 2.36 1.465 3.838 0 1.484-.518 2.783-1.553 3.896-1.029 1.107-2.353 1.66-3.975 1.66-1.627 0-2.959-.553-3.994-1.66-1.028-1.113-1.543-2.412-1.543-3.896 0-1.472.489-2.748 1.465-3.828 1.074-1.192 2.432-1.787 4.072-1.787Zm0 1.337c-1.132 0-2.106.42-2.919 1.26-.814.84-1.221 1.856-1.221 3.047 0 .768.185 1.484.556 2.149a4 4 0 0 0 1.504 1.543 4.146 4.146 0 0 0 2.08.537c.756 0 1.449-.179 2.081-.537a3.99 3.99 0 0 0 1.503-1.543 4.329 4.329 0 0 0 .557-2.149c0-1.191-.41-2.207-1.23-3.047-.814-.84-1.784-1.26-2.911-1.26ZM113.914 360h-3.086v-10.625h3.037c1.159 0 1.992.267 2.5.801.515.534.772 1.159.772 1.875 0 1.081-.476 1.813-1.426 2.197 1.38.488 2.07 1.429 2.07 2.822 0 1.953-1.289 2.93-3.867 2.93Zm-1.709-9.443v3.32h.889c.807 0 1.334-.033 1.582-.098.247-.065.478-.224.693-.478.221-.261.332-.602.332-1.026 0-.442-.114-.813-.342-1.113-.227-.299-.468-.475-.722-.527-.248-.052-.762-.078-1.543-.078h-.889Zm0 4.57v3.721h1.465c.69 0 1.182-.043 1.475-.127.299-.091.553-.283.761-.576.215-.293.323-.665.323-1.114 0-.579-.183-1.041-.547-1.386-.365-.346-.847-.518-1.446-.518h-2.031Zm19.065-5.752V360h-1.348v-1.826c-.573.696-1.218 1.221-1.934 1.572a5.175 5.175 0 0 1-2.334.527c-1.504 0-2.789-.543-3.857-1.63-1.061-1.094-1.592-2.422-1.592-3.985 0-1.53.537-2.838 1.611-3.926 1.075-1.087 2.367-1.63 3.877-1.63.873 0 1.661.185 2.364.556.709.371 1.331.928 1.865 1.67v-1.953h1.348Zm-5.469 1.045c-.762 0-1.465.189-2.11.566a4.129 4.129 0 0 0-1.543 1.573 4.321 4.321 0 0 0 .01 4.296 4.244 4.244 0 0 0 1.543 1.602 4.094 4.094 0 0 0 2.09.566 4.27 4.27 0 0 0 2.129-.566 3.936 3.936 0 0 0 1.543-1.533c.364-.645.547-1.371.547-2.178 0-1.23-.407-2.259-1.221-3.086-.807-.827-1.803-1.24-2.988-1.24Zm14.504-1.045h1.386v4.697l5.079-4.697h1.669l-5.019 4.736 5.4 5.889h-1.748l-4.599-5.137-.782.655V360h-1.386v-4.482l-.762-.655-4.58 5.137h-1.748l5.342-5.889-4.942-4.736h1.67l5.02 4.697v-4.697Zm17.99 5.508h-6.172V360h-1.377v-10.625h1.377v4.219h6.172v-4.219h1.367V360h-1.367v-5.117Zm6.281-1.299h1.299c1.035 0 1.846.081 2.432.244.586.163 1.09.524 1.513 1.084.423.553.635 1.192.635 1.914 0 .873-.306 1.621-.918 2.246-.612.619-1.54.928-2.783.928h-3.535v-10.625h1.357v4.209Zm.049 1.25v4.014h1.572c1.849 0 2.774-.651 2.774-1.953a2.2 2.2 0 0 0-.303-1.094 1.592 1.592 0 0 0-.869-.752c-.378-.143-1.048-.215-2.012-.215h-1.162Zm7.715-5.459h1.377V360h-1.377v-10.625Zm3.586 0h1.64l2.813 3.936 2.812-3.936h1.641l-3.633 5.049 4.092 5.576h-1.66l-3.252-4.463-3.203 4.463h-1.631l4.023-5.576-3.642-5.049Zm24.916 5.508h-6.172V360h-1.377v-10.625h1.377v4.219h6.172v-4.219h1.367V360h-1.367v-5.117Zm3.781-5.508h1.445l3.653 8.184 3.545-8.184h1.455l-6.338 14.512h-1.445l2.05-4.688-4.365-9.824Zm11.174 0h6.992v1.182h-2.812V360H218.6v-9.443h-2.803v-1.182Zm9.367 0h1.357v1.953c.541-.742 1.163-1.299 1.866-1.67.703-.371 1.487-.556 2.353-.556 1.511 0 2.803.543 3.877 1.63 1.074 1.088 1.612 2.396 1.612 3.926 0 1.563-.534 2.891-1.602 3.985-1.061 1.087-2.344 1.63-3.848 1.63a5.18 5.18 0 0 1-2.334-.527c-.709-.351-1.351-.876-1.924-1.572v5.713h-1.357v-14.512Zm5.469 1.045c-1.185 0-2.184.413-2.998 1.24-.808.827-1.211 1.856-1.211 3.086 0 .807.179 1.533.537 2.178a4.002 4.002 0 0 0 1.553 1.533c.677.378 1.39.566 2.138.566.736 0 1.426-.188 2.071-.566a4.215 4.215 0 0 0 1.552-1.602 4.28 4.28 0 0 0 0-4.296 4.041 4.041 0 0 0-1.533-1.573 4.1 4.1 0 0 0-2.109-.566Zm10.031-1.045v7.861l7.803-7.861h.107V360h-1.367v-7.793L239.463 360h-.166v-10.625h1.367Zm20.402 7.1 1.153.605c-.378.742-.814 1.341-1.309 1.797a5.262 5.262 0 0 1-1.67 1.045c-.618.234-1.318.351-2.099.351-1.732 0-3.086-.566-4.063-1.699-.976-1.139-1.465-2.425-1.465-3.857 0-1.348.414-2.549 1.241-3.604 1.048-1.341 2.451-2.011 4.208-2.011 1.81 0 3.256.686 4.336 2.06.769.97 1.159 2.181 1.172 3.633h-9.55c.026 1.237.419 2.253 1.181 3.047.762.788 1.703 1.181 2.822 1.181.541 0 1.065-.094 1.573-.283.514-.189.95-.439 1.308-.752.358-.312.746-.817 1.162-1.513Zm0-2.862c-.182-.729-.449-1.312-.8-1.748-.345-.436-.804-.788-1.377-1.054a4.228 4.228 0 0 0-1.807-.401c-1.042 0-1.937.335-2.686 1.006-.546.488-.96 1.221-1.24 2.197h7.91Zm12.112 1.27h-6.172V360h-1.377v-10.625h1.377v4.219h6.172v-4.219h1.367V360h-1.367v-5.117Zm3.732-5.508h6.992v1.182h-2.812V360h-1.377v-9.443h-2.803v-1.182Zm14.377-.273c1.634 0 2.988.592 4.063 1.777.976 1.081 1.464 2.36 1.464 3.838 0 1.484-.517 2.783-1.552 3.896-1.029 1.107-2.354 1.66-3.975 1.66-1.627 0-2.959-.553-3.994-1.66-1.029-1.113-1.543-2.412-1.543-3.896 0-1.472.488-2.748 1.465-3.828 1.074-1.192 2.431-1.787 4.072-1.787Zm0 1.337c-1.133 0-2.106.42-2.92 1.26-.814.84-1.221 1.856-1.221 3.047 0 .768.186 1.484.557 2.149a3.993 3.993 0 0 0 1.504 1.543 4.146 4.146 0 0 0 2.08.537c.755 0 1.449-.179 2.08-.537a3.986 3.986 0 0 0 1.504-1.543 4.34 4.34 0 0 0 .557-2.149c0-1.191-.41-2.207-1.231-3.047-.814-.84-1.784-1.26-2.91-1.26ZM302.949 360h-3.086v-10.625h3.037c1.159 0 1.993.267 2.5.801.515.534.772 1.159.772 1.875 0 1.081-.475 1.813-1.426 2.197 1.38.488 2.07 1.429 2.07 2.822 0 1.953-1.289 2.93-3.867 2.93Zm-1.709-9.443v3.32h.889c.807 0 1.335-.033 1.582-.098.247-.065.478-.224.693-.478.222-.261.332-.602.332-1.026 0-.442-.114-.813-.341-1.113-.228-.299-.469-.475-.723-.527-.248-.052-.762-.078-1.543-.078h-.889Zm0 4.57v3.721h1.465c.69 0 1.182-.043 1.475-.127.299-.091.553-.283.761-.576.215-.293.323-.665.323-1.114 0-.579-.183-1.041-.547-1.386-.365-.346-.847-.518-1.446-.518h-2.031Z" fill="#fff"/><g filter="url(#b)"><circle cx="482" cy="163" r="103" fill="#fff"/></g><circle cx="482" cy="163" r="87.5" stroke="#EE964B"/><path d="M408.221 157.635h10.195V172h-1.445v-12.998h-7.305V172h-1.445v-14.365Zm15.334 3.74v7.861l7.802-7.861h.108V172h-1.367v-7.793L422.354 172h-.166v-10.625h1.367ZM451.896 172h-16.884v-10.625h1.377v9.336h5.859v-9.336h1.387v9.336h5.859v-9.336h1.397v9.336h2.304v2.969h-1.299V172Zm12.581-3.525 1.152.605c-.378.742-.814 1.341-1.309 1.797a5.251 5.251 0 0 1-1.67 1.045c-.618.234-1.318.351-2.099.351-1.732 0-3.086-.566-4.063-1.699-.976-1.139-1.465-2.425-1.465-3.857 0-1.348.414-2.549 1.241-3.604 1.048-1.341 2.451-2.011 4.209-2.011 1.81 0 3.255.686 4.336 2.06.768.97 1.158 2.181 1.171 3.633h-9.55c.026 1.237.42 2.253 1.181 3.047.762.788 1.703 1.181 2.823 1.181.54 0 1.064-.094 1.572-.283.514-.189.95-.439 1.308-.752.359-.312.746-.817 1.163-1.513Zm0-2.862c-.183-.729-.45-1.312-.801-1.748-.345-.436-.804-.788-1.377-1.054a4.228 4.228 0 0 0-1.807-.401c-1.041 0-1.937.335-2.685 1.006-.547.488-.961 1.221-1.241 2.197h7.911Zm7.648 6.387h-3.086v-10.625h3.037c1.159 0 1.992.267 2.5.801.514.534.772 1.159.772 1.875 0 1.081-.476 1.813-1.426 2.197 1.38.488 2.07 1.429 2.07 2.822 0 1.953-1.289 2.93-3.867 2.93Zm-1.709-9.443v3.32h.889c.807 0 1.334-.033 1.582-.098.247-.065.478-.224.693-.478.221-.261.332-.602.332-1.026 0-.442-.114-.813-.342-1.113-.228-.299-.468-.475-.722-.527-.248-.052-.762-.078-1.543-.078h-.889Zm0 4.57v3.721h1.465c.69 0 1.181-.043 1.474-.127.3-.091.554-.283.762-.576.215-.293.322-.665.322-1.114 0-.579-.182-1.041-.546-1.386-.365-.346-.847-.518-1.446-.518h-2.031Zm19.064-5.752V172h-1.347v-1.826c-.573.696-1.218 1.221-1.934 1.572a5.175 5.175 0 0 1-2.334.527c-1.504 0-2.789-.543-3.857-1.63-1.061-1.094-1.592-2.422-1.592-3.985 0-1.53.537-2.838 1.611-3.926 1.075-1.087 2.367-1.63 3.877-1.63.873 0 1.66.185 2.364.556.709.371 1.331.928 1.865 1.67v-1.953h1.347Zm-5.468 1.045c-.762 0-1.465.189-2.11.566a4.121 4.121 0 0 0-1.543 1.573 4.321 4.321 0 0 0 .01 4.296 4.244 4.244 0 0 0 1.543 1.602 4.094 4.094 0 0 0 2.09.566 4.27 4.27 0 0 0 2.129-.566 3.936 3.936 0 0 0 1.543-1.533c.364-.645.547-1.371.547-2.178 0-1.23-.407-2.259-1.221-3.086-.807-.827-1.803-1.24-2.988-1.24Zm9.074-1.045h1.357v1.953c.541-.742 1.162-1.299 1.866-1.67.703-.371 1.487-.556 2.353-.556 1.511 0 2.803.543 3.877 1.63 1.074 1.088 1.611 2.396 1.611 3.926 0 1.563-.533 2.891-1.601 3.985-1.061 1.087-2.344 1.63-3.848 1.63a5.18 5.18 0 0 1-2.334-.527c-.709-.351-1.351-.876-1.924-1.572v5.713h-1.357v-14.512Zm5.469 1.045c-1.185 0-2.185.413-2.998 1.24-.808.827-1.211 1.856-1.211 3.086 0 .807.179 1.533.537 2.178a3.995 3.995 0 0 0 1.553 1.533c.677.378 1.39.566 2.138.566.736 0 1.426-.188 2.071-.566a4.215 4.215 0 0 0 1.552-1.602 4.288 4.288 0 0 0 0-4.296 4.041 4.041 0 0 0-1.533-1.573 4.103 4.103 0 0 0-2.109-.566Zm17.609 6.055 1.152.605c-.377.742-.813 1.341-1.308 1.797a5.273 5.273 0 0 1-1.67 1.045c-.619.234-1.318.351-2.1.351-1.731 0-3.086-.566-4.062-1.699-.977-1.139-1.465-2.425-1.465-3.857 0-1.348.413-2.549 1.24-3.604 1.048-1.341 2.451-2.011 4.209-2.011 1.81 0 3.255.686 4.336 2.06.768.97 1.159 2.181 1.172 3.633h-9.551c.026 1.237.42 2.253 1.182 3.047.762.788 1.702 1.181 2.822 1.181.54 0 1.065-.094 1.572-.283a4.12 4.12 0 0 0 1.309-.752c.358-.312.745-.817 1.162-1.513Zm0-2.862c-.182-.729-.449-1.312-.801-1.748-.345-.436-.804-.788-1.377-1.054a4.227 4.227 0 0 0-1.806-.401c-1.042 0-1.937.335-2.686 1.006-.547.488-.96 1.221-1.24 2.197h7.91Zm12.111 1.27h-6.171V172h-1.377v-10.625h1.377v4.219h6.171v-4.219h1.368V172h-1.368v-5.117Zm6.291-5.508v7.861l7.803-7.861h.108V172h-1.368v-7.793L533.365 172h-.166v-10.625h1.367Zm20.403 7.1 1.152.605c-.378.742-.814 1.341-1.309 1.797a5.258 5.258 0 0 1-1.669 1.045c-.619.234-1.319.351-2.1.351-1.732 0-3.086-.566-4.063-1.699-.976-1.139-1.464-2.425-1.464-3.857 0-1.348.413-2.549 1.24-3.604 1.048-1.341 2.451-2.011 4.209-2.011 1.81 0 3.255.686 4.336 2.06.768.97 1.159 2.181 1.172 3.633h-9.551c.026 1.237.42 2.253 1.182 3.047.761.788 1.702 1.181 2.822 1.181.54 0 1.064-.094 1.572-.283a4.13 4.13 0 0 0 1.309-.752c.358-.312.745-.817 1.162-1.513Zm0-2.862c-.183-.729-.449-1.312-.801-1.748-.345-.436-.804-.788-1.377-1.054a4.228 4.228 0 0 0-1.807-.401c-1.041 0-1.936.335-2.685 1.006-.547.488-.96 1.221-1.24 2.197h7.91Z" fill="#444"/><circle cx="525" cy="467" r="90" fill="#EE964B"/><circle cx="525" cy="467" r="77.5" stroke="#fff"/><path d="M468.857 447.635h1.446v6.025h7.304v-6.025h1.446V462h-1.446v-6.934h-7.304V462h-1.446v-14.365Zm24.553 3.74V462h-1.348v-1.826c-.572.696-1.217 1.221-1.933 1.572a5.18 5.18 0 0 1-2.334.527c-1.504 0-2.79-.543-3.857-1.63-1.062-1.094-1.592-2.422-1.592-3.985 0-1.53.537-2.838 1.611-3.926 1.074-1.087 2.367-1.63 3.877-1.63.872 0 1.66.185 2.363.556.71.371 1.332.928 1.865 1.67v-1.953h1.348Zm-5.469 1.045c-.761 0-1.464.189-2.109.566a4.121 4.121 0 0 0-1.543 1.573 4.321 4.321 0 0 0 .01 4.296 4.237 4.237 0 0 0 1.543 1.602 4.091 4.091 0 0 0 2.09.566c.748 0 1.458-.188 2.129-.566a3.942 3.942 0 0 0 1.543-1.533c.364-.645.546-1.371.546-2.178 0-1.23-.407-2.259-1.22-3.086-.808-.827-1.804-1.24-2.989-1.24Zm19.368 1.162-1.084.674c-.938-1.244-2.217-1.865-3.838-1.865-1.296 0-2.373.416-3.233 1.25-.853.833-1.279 1.845-1.279 3.037 0 .774.195 1.504.586 2.187a4.181 4.181 0 0 0 1.621 1.592c.69.378 1.462.566 2.314.566 1.563 0 2.839-.621 3.829-1.865l1.084.713a5.14 5.14 0 0 1-2.051 1.777c-.853.417-1.826.625-2.92.625-1.68 0-3.073-.533-4.18-1.601-1.107-1.068-1.66-2.367-1.66-3.897 0-1.028.257-1.982.772-2.861a5.49 5.49 0 0 1 2.138-2.07c.905-.495 1.918-.742 3.037-.742a6.44 6.44 0 0 1 2.032.322c.657.215 1.214.495 1.669.84.456.345.844.784 1.163 1.318Zm1.945-2.207h6.992v1.182h-2.812V462h-1.377v-9.443h-2.803v-1.182Zm9.367 0h1.358v1.953c.54-.742 1.162-1.299 1.865-1.67.703-.371 1.487-.556 2.353-.556 1.511 0 2.803.543 3.877 1.63 1.074 1.088 1.612 2.396 1.612 3.926 0 1.563-.534 2.891-1.602 3.985-1.061 1.087-2.344 1.63-3.848 1.63a5.18 5.18 0 0 1-2.334-.527c-.709-.351-1.351-.876-1.923-1.572v5.713h-1.358v-14.512Zm5.469 1.045c-1.185 0-2.184.413-2.998 1.24-.807.827-1.211 1.856-1.211 3.086 0 .807.179 1.533.537 2.178a4.002 4.002 0 0 0 1.553 1.533c.677.378 1.39.566 2.138.566.736 0 1.426-.188 2.071-.566a4.215 4.215 0 0 0 1.552-1.602 4.28 4.28 0 0 0 0-4.296 4.041 4.041 0 0 0-1.533-1.573 4.1 4.1 0 0 0-2.109-.566Zm13.693-1.318c1.634 0 2.988.592 4.063 1.777.976 1.081 1.465 2.36 1.465 3.838 0 1.484-.518 2.783-1.553 3.896-1.029 1.107-2.354 1.66-3.975 1.66-1.627 0-2.959-.553-3.994-1.66-1.029-1.113-1.543-2.412-1.543-3.896 0-1.472.488-2.748 1.465-3.828 1.074-1.192 2.432-1.787 4.072-1.787Zm0 1.337c-1.133 0-2.106.42-2.92 1.26-.814.84-1.22 1.856-1.22 3.047 0 .768.185 1.484.556 2.149a3.993 3.993 0 0 0 1.504 1.543 4.146 4.146 0 0 0 2.08.537c.755 0 1.449-.179 2.08-.537a3.986 3.986 0 0 0 1.504-1.543 4.34 4.34 0 0 0 .557-2.149c0-1.191-.41-2.207-1.231-3.047-.813-.84-1.783-1.26-2.91-1.26Zm9.944-1.064v7.861l7.802-7.861h.108V462h-1.367v-7.793L546.525 462h-.166v-10.625h1.368Zm-.186-4.268h1.289c.221.339.518.593.889.762.371.169.814.254 1.328.254.521 0 .941-.075 1.26-.225.319-.149.621-.413.908-.791h1.25c-.143.586-.511 1.078-1.104 1.475-.586.391-1.36.586-2.324.586-.957 0-1.738-.192-2.344-.576-.605-.391-.989-.886-1.152-1.485Zm11.643 4.268h1.377v4.473l4.912-4.473h1.904l-5.381 4.863 5.811 5.762h-1.934l-4.883-4.912-.429.381V462h-1.377v-10.625Zm21.125 0V462h-1.348v-1.826c-.573.696-1.218 1.221-1.934 1.572a5.175 5.175 0 0 1-2.334.527c-1.504 0-2.789-.543-3.857-1.63-1.061-1.094-1.592-2.422-1.592-3.985 0-1.53.537-2.838 1.611-3.926 1.075-1.087 2.367-1.63 3.877-1.63.873 0 1.661.185 2.364.556.709.371 1.331.928 1.865 1.67v-1.953h1.348Zm-5.469 1.045c-.762 0-1.465.189-2.11.566a4.119 4.119 0 0 0-1.542 1.573 4.321 4.321 0 0 0 .009 4.296 4.244 4.244 0 0 0 1.543 1.602 4.094 4.094 0 0 0 2.09.566 4.27 4.27 0 0 0 2.129-.566 3.929 3.929 0 0 0 1.543-1.533c.365-.645.547-1.371.547-2.178 0-1.23-.407-2.259-1.221-3.086-.807-.827-1.803-1.24-2.988-1.24Zm-89.731 23.955h8.916V487h-1.367v-9.336h-6.181V487h-1.368v-10.625Zm13.84 0v7.861l7.803-7.861h.107V487h-1.367v-7.793L497.748 487h-.166v-10.625h1.367Zm10.266 0h6.992v1.182h-2.812V487h-1.377v-9.443h-2.803v-1.182Zm19.933 0V487h-1.347v-1.826c-.573.696-1.218 1.221-1.934 1.572a5.175 5.175 0 0 1-2.334.527c-1.504 0-2.79-.543-3.857-1.63-1.061-1.094-1.592-2.422-1.592-3.985 0-1.53.537-2.838 1.611-3.926 1.075-1.087 2.367-1.63 3.877-1.63.873 0 1.66.185 2.364.556.709.371 1.331.928 1.865 1.67v-1.953h1.347Zm-5.468 1.045c-.762 0-1.465.189-2.11.566a4.121 4.121 0 0 0-1.543 1.573 4.321 4.321 0 0 0 .01 4.296 4.244 4.244 0 0 0 1.543 1.602 4.094 4.094 0 0 0 2.09.566 4.27 4.27 0 0 0 2.129-.566 3.936 3.936 0 0 0 1.543-1.533c.364-.645.547-1.371.547-2.178 0-1.23-.407-2.259-1.221-3.086-.807-.827-1.803-1.24-2.988-1.24Zm16.603 4.463h-6.172V487h-1.377v-10.625h1.377v4.219h6.172v-4.219h1.367V487h-1.367v-5.117Zm6.291-5.508v7.861l7.803-7.861h.107V487h-1.367v-7.793L545.373 487h-.166v-10.625h1.367Zm15.94 5.869h-.977L558.51 487h-1.475l3.194-4.893c-.795-.097-1.439-.397-1.934-.898-.495-.508-.742-1.136-.742-1.885 0-.937.283-1.663.849-2.178.573-.514 1.322-.771 2.246-.771h3.233V487h-1.367v-4.756Zm0-4.687h-.899c-.872 0-1.458.055-1.758.166-.299.11-.537.302-.712.576-.176.267-.264.628-.264 1.084 0 .436.114.797.342 1.084.228.28.481.452.761.517s.824.098 1.631.098h.899v-3.525Z" fill="#fff"/><g filter="url(#c)"><circle cx="1093" cy="197" r="109" fill="#fff"/></g><circle cx="1093" cy="197" r="96.5" stroke="#EE964B"/><path d="M1029.04 193.467h-6.78v-1.416h6.73c-.13-1.641-.81-2.943-2.04-3.906-1.24-.971-2.6-1.456-4.1-1.456-2.16 0-3.87.827-5.13 2.481l-1.15-.869c.66-.938 1.53-1.677 2.63-2.217 1.11-.54 2.33-.811 3.67-.811 2.2 0 4.04.717 5.52 2.149 1.49 1.432 2.23 3.203 2.23 5.312 0 2.129-.71 3.933-2.11 5.411-1.4 1.477-3.29 2.216-5.66 2.216-2.68 0-4.77-.953-6.28-2.861l1.15-.859c1.34 1.575 3.02 2.363 5.04 2.363 1.54 0 2.91-.449 4.1-1.348 1.2-.905 1.92-2.301 2.18-4.189Zm13.37-8.194h1.35v5.704c.86-1.211 2.08-1.817 3.69-1.817 1.54 0 2.83.524 3.87 1.572 1.05 1.049 1.57 2.393 1.57 4.034 0 1.621-.52 2.952-1.58 3.994-1.05 1.041-2.33 1.562-3.83 1.562-1.64 0-2.88-.638-3.72-1.914v5.479h-1.35v-5.479c-.83 1.283-2.08 1.924-3.75 1.924-1.48 0-2.74-.521-3.8-1.562-1.06-1.042-1.58-2.377-1.58-4.004 0-1.641.52-2.985 1.56-4.034 1.05-1.048 2.34-1.572 3.88-1.572 1.64 0 2.87.606 3.69 1.817v-5.704Zm1.31 9.668c0 1.27.37 2.266 1.09 2.989.72.722 1.55 1.084 2.49 1.084 1.27 0 2.3-.424 3.07-1.27.76-.846 1.15-1.865 1.15-3.056 0-1.231-.41-2.253-1.22-3.067-.81-.814-1.78-1.221-2.91-1.221-1.03 0-1.89.365-2.6 1.094-.71.723-1.07 1.872-1.07 3.447Zm-9.07-.244c0 1.185.38 2.201 1.14 3.047.77.846 1.8 1.27 3.08 1.27.44 0 .92-.111 1.43-.332.5-.228.91-.511 1.22-.85.31-.345.54-.742.7-1.191.16-.45.24-1.107.24-1.973 0-1.38-.36-2.435-1.08-3.164-.72-.736-1.58-1.104-2.6-1.104-1.14 0-2.11.407-2.92 1.221-.8.814-1.21 1.839-1.21 3.076Zm29.9-9.424h1.35v5.704c.86-1.211 2.08-1.817 3.69-1.817 1.54 0 2.83.524 3.87 1.572 1.05 1.049 1.58 2.393 1.58 4.034 0 1.621-.53 2.952-1.59 3.994-1.05 1.041-2.33 1.562-3.83 1.562-1.64 0-2.88-.638-3.72-1.914v5.479h-1.35v-5.479c-.83 1.283-2.08 1.924-3.75 1.924-1.47 0-2.74-.521-3.8-1.562-1.06-1.042-1.58-2.377-1.58-4.004 0-1.641.52-2.985 1.56-4.034 1.05-1.048 2.34-1.572 3.89-1.572 1.63 0 2.86.606 3.68 1.817v-5.704Zm1.32 9.668c0 1.27.36 2.266 1.08 2.989.72.722 1.55 1.084 2.49 1.084 1.28 0 2.3-.424 3.07-1.27.76-.846 1.15-1.865 1.15-3.056 0-1.231-.41-2.253-1.22-3.067-.81-.814-1.78-1.221-2.91-1.221-1.02 0-1.89.365-2.6 1.094-.71.723-1.06 1.872-1.06 3.447Zm-9.08-.244c0 1.185.38 2.201 1.15 3.047.76.846 1.79 1.27 3.07 1.27.44 0 .92-.111 1.43-.332.51-.228.91-.511 1.22-.85.31-.345.55-.742.7-1.191.16-.45.24-1.107.24-1.973 0-1.38-.36-2.435-1.08-3.164a3.48 3.48 0 0 0-2.6-1.104c-1.14 0-2.11.407-2.92 1.221-.8.814-1.21 1.839-1.21 3.076Zm30.22 1.778 1.15.605c-.38.742-.81 1.341-1.31 1.797-.49.456-1.05.804-1.67 1.045-.61.234-1.31.351-2.1.351-1.73 0-3.08-.566-4.06-1.699-.98-1.139-1.46-2.425-1.46-3.857 0-1.348.41-2.549 1.24-3.604 1.05-1.341 2.45-2.011 4.21-2.011 1.81 0 3.25.686 4.33 2.06.77.97 1.16 2.181 1.17 3.633h-9.55c.03 1.237.42 2.253 1.18 3.047.77.788 1.71 1.181 2.83 1.181.54 0 1.06-.094 1.57-.283.51-.189.95-.439 1.31-.752.36-.312.74-.817 1.16-1.513Zm0-2.862c-.18-.729-.45-1.312-.8-1.748a3.788 3.788 0 0 0-1.38-1.054 4.194 4.194 0 0 0-1.8-.401c-1.05 0-1.94.335-2.69 1.006-.55.488-.96 1.221-1.24 2.197h7.91Zm4.56-4.238h1.38v4.473l4.91-4.473h1.91l-5.39 4.863 5.82 5.762h-1.94l-4.88-4.912-.43.381V200h-1.38v-10.625Zm9.35 0h6.99v1.182h-2.81V200h-1.38v-9.443h-2.8v-1.182Zm10.71 0v7.861l7.81-7.861h.1V200h-1.36v-7.793l-7.75 7.793h-.16v-10.625h1.36ZM1126.18 200h-3.09v-10.625h3.04c1.16 0 1.99.267 2.5.801s.77 1.159.77 1.875c0 1.081-.47 1.813-1.43 2.197 1.38.488 2.07 1.429 2.07 2.822 0 1.953-1.28 2.93-3.86 2.93Zm-1.71-9.443v3.32h.89c.8 0 1.33-.033 1.58-.098s.48-.224.69-.478c.22-.261.33-.602.33-1.026 0-.442-.11-.813-.34-1.113-.22-.299-.47-.475-.72-.527-.25-.052-.76-.078-1.54-.078h-.89Zm0 4.57v3.721h1.46c.69 0 1.19-.043 1.48-.127.3-.091.55-.283.76-.576.21-.293.32-.665.32-1.114 0-.579-.18-1.041-.54-1.386-.37-.346-.85-.518-1.45-.518h-2.03Zm16.03-.244h-6.18V200h-1.37v-10.625h1.37v4.219h6.18v-4.219h1.36V200h-1.36v-5.117Zm9.95-5.781c1.63 0 2.99.592 4.06 1.777.98 1.081 1.47 2.36 1.47 3.838 0 1.484-.52 2.783-1.56 3.896-1.02 1.107-2.35 1.66-3.97 1.66-1.63 0-2.96-.553-3.99-1.66-1.03-1.113-1.55-2.412-1.55-3.896 0-1.472.49-2.748 1.47-3.828 1.07-1.192 2.43-1.787 4.07-1.787Zm0 1.337c-1.13 0-2.11.42-2.92 1.26-.81.84-1.22 1.856-1.22 3.047 0 .768.18 1.484.56 2.149.37.664.87 1.178 1.5 1.543.63.358 1.32.537 2.08.537.75 0 1.45-.179 2.08-.537a3.983 3.983 0 0 0 1.5-1.543c.37-.665.56-1.381.56-2.149 0-1.191-.41-2.207-1.23-3.047-.81-.84-1.78-1.26-2.91-1.26Zm17.52 6.036 1.15.605c-.37.742-.81 1.341-1.31 1.797-.49.456-1.05.804-1.67 1.045-.61.234-1.31.351-2.1.351-1.73 0-3.08-.566-4.06-1.699-.97-1.139-1.46-2.425-1.46-3.857 0-1.348.41-2.549 1.24-3.604 1.05-1.341 2.45-2.011 4.21-2.011 1.81 0 3.25.686 4.33 2.06.77.97 1.16 2.181 1.17 3.633h-9.55c.03 1.237.42 2.253 1.19 3.047.76.788 1.7 1.181 2.82 1.181.54 0 1.06-.094 1.57-.283.51-.189.95-.439 1.31-.752.36-.312.74-.817 1.16-1.513Zm0-2.862c-.18-.729-.45-1.312-.8-1.748-.35-.436-.8-.788-1.38-1.054a4.194 4.194 0 0 0-1.8-.401c-1.05 0-1.94.335-2.69 1.006-.55.488-.96 1.221-1.24 2.197h7.91Zm-119.33 20.762h.39l3.61 10.625h-1.43l-2.63-7.822-4.08 7.822h-.25l-4.09-7.822-2.62 7.822h-1.43l3.63-10.625h.37l4.27 8.311 4.26-8.311Zm7.9 4.209h1.3c1.04 0 1.85.081 2.44.244.58.163 1.09.524 1.51 1.084.42.553.63 1.192.63 1.914 0 .873-.3 1.621-.91 2.246-.62.619-1.54.928-2.79.928h-3.53v-10.625h1.35v4.209Zm.05 1.25v4.014h1.58c1.84 0 2.77-.651 2.77-1.953 0-.372-.1-.736-.3-1.094-.2-.358-.49-.609-.87-.752-.38-.143-1.05-.215-2.01-.215h-1.17Zm7.72-5.459h1.38V225h-1.38v-10.625ZM1084.98 225h-15.87v-10.625h1.37v9.336h5.85v-9.336h1.4v9.336h5.86v-9.336h1.39V225Zm12.55 0h-1.46l-3.55-7.734-3.53 7.734h-1.46l4.86-10.625h.24l4.9 10.625Zm11.54-3.525 1.15.605c-.37.742-.81 1.341-1.31 1.797-.49.456-1.05.804-1.67 1.045-.61.234-1.31.351-2.1.351-1.73 0-3.08-.566-4.06-1.699-.97-1.139-1.46-2.425-1.46-3.857 0-1.348.41-2.549 1.24-3.604 1.05-1.341 2.45-2.011 4.21-2.011 1.81 0 3.25.686 4.33 2.06.77.97 1.16 2.181 1.17 3.633h-9.55c.03 1.237.42 2.253 1.19 3.047.76.788 1.7 1.181 2.82 1.181.54 0 1.06-.094 1.57-.283.51-.189.95-.439 1.31-.752.36-.312.74-.817 1.16-1.513Zm0-2.862c-.18-.729-.45-1.312-.8-1.748-.35-.436-.8-.788-1.38-1.054a4.194 4.194 0 0 0-1.8-.401c-1.05 0-1.94.335-2.69 1.006-.55.488-.96 1.221-1.24 2.197h7.91Zm12.11 1.27h-6.17V225h-1.38v-10.625h1.38v4.219h6.17v-4.219h1.37V225h-1.37v-5.117Zm6.29-5.508v7.861l7.81-7.861h.1V225h-1.36v-7.793l-7.75 7.793h-.16v-10.625h1.36Zm20.41 7.1 1.15.605c-.38.742-.82 1.341-1.31 1.797-.5.456-1.05.804-1.67 1.045-.62.234-1.32.351-2.1.351-1.73 0-3.09-.566-4.06-1.699-.98-1.139-1.47-2.425-1.47-3.857 0-1.348.42-2.549 1.24-3.604 1.05-1.341 2.45-2.011 4.21-2.011 1.81 0 3.26.686 4.34 2.06.77.97 1.16 2.181 1.17 3.633h-9.55c.02 1.237.42 2.253 1.18 3.047.76.788 1.7 1.181 2.82 1.181.54 0 1.07-.094 1.57-.283.52-.189.95-.439 1.31-.752.36-.312.75-.817 1.17-1.513Zm0-2.862c-.19-.729-.45-1.312-.81-1.748-.34-.436-.8-.788-1.37-1.054a4.27 4.27 0 0 0-1.81-.401c-1.04 0-1.94.335-2.68 1.006-.55.488-.97 1.221-1.25 2.197h7.92Z" fill="#444"/><circle cx="799" cy="298" r="130" fill="#EE964B"/><circle cx="799" cy="298" r="109.5" stroke="#fff"/><path d="M754.25 274.635h10.195V289H763v-12.998h-7.305V289h-1.445v-14.365Zm15.334 3.74v7.861l7.803-7.861h.107V289h-1.367v-7.793L768.383 289h-.166v-10.625h1.367ZM797.926 289h-16.885v-10.625h1.377v9.336h5.859v-9.336h1.387v9.336h5.859v-9.336h1.397v9.336h2.305v2.969h-1.299V289Zm12.58-3.525 1.152.605c-.377.742-.814 1.341-1.308 1.797a5.273 5.273 0 0 1-1.67 1.045c-.619.234-1.319.351-2.1.351-1.732 0-3.086-.566-4.062-1.699-.977-1.139-1.465-2.425-1.465-3.857 0-1.348.413-2.549 1.24-3.604 1.048-1.341 2.451-2.011 4.209-2.011 1.81 0 3.255.686 4.336 2.06.768.97 1.159 2.181 1.172 3.633h-9.551c.026 1.237.42 2.253 1.182 3.047.761.788 1.702 1.181 2.822 1.181.54 0 1.064-.094 1.572-.283a4.13 4.13 0 0 0 1.309-.752c.358-.312.745-.817 1.162-1.513Zm0-2.862c-.182-.729-.449-1.312-.801-1.748-.345-.436-.804-.788-1.377-1.054a4.228 4.228 0 0 0-1.807-.401c-1.041 0-1.936.335-2.685 1.006-.547.488-.96 1.221-1.24 2.197h7.91Zm7.648 6.387h-3.086v-10.625h3.037c1.159 0 1.993.267 2.5.801.515.534.772 1.159.772 1.875 0 1.081-.475 1.813-1.426 2.197 1.38.488 2.07 1.429 2.07 2.822 0 1.953-1.289 2.93-3.867 2.93Zm-1.709-9.443v3.32h.889c.807 0 1.335-.033 1.582-.098.247-.065.479-.224.693-.478.222-.261.332-.602.332-1.026 0-.442-.114-.813-.341-1.113-.228-.299-.469-.475-.723-.527-.247-.052-.762-.078-1.543-.078h-.889Zm0 4.57v3.721h1.465c.69 0 1.182-.043 1.475-.127.299-.091.553-.283.761-.576.215-.293.323-.665.323-1.114 0-.579-.183-1.041-.547-1.386-.365-.346-.846-.518-1.445-.518h-2.032Zm19.065-5.752V289h-1.348v-1.826c-.573.696-1.217 1.221-1.933 1.572a5.18 5.18 0 0 1-2.334.527c-1.504 0-2.79-.543-3.858-1.63-1.061-1.094-1.592-2.422-1.592-3.985 0-1.53.537-2.838 1.612-3.926 1.074-1.087 2.366-1.63 3.877-1.63.872 0 1.66.185 2.363.556.71.371 1.331.928 1.865 1.67v-1.953h1.348Zm-5.469 1.045a4.1 4.1 0 0 0-2.109.566 4.114 4.114 0 0 0-1.543 1.573 4.321 4.321 0 0 0 .009 4.296 4.252 4.252 0 0 0 1.543 1.602 4.094 4.094 0 0 0 2.09.566c.749 0 1.459-.188 2.129-.566a3.929 3.929 0 0 0 1.543-1.533c.365-.645.547-1.371.547-2.178 0-1.23-.407-2.259-1.221-3.086-.807-.827-1.803-1.24-2.988-1.24Zm13.537 4.824h-.976L839.574 289H838.1l3.193-4.893c-.794-.097-1.439-.397-1.934-.898-.494-.508-.742-1.136-.742-1.885 0-.937.283-1.663.85-2.178.573-.514 1.321-.771 2.246-.771h3.232V289h-1.367v-4.756Zm0-4.687h-.898c-.873 0-1.459.055-1.758.166-.3.11-.537.302-.713.576-.176.267-.264.628-.264 1.084 0 .436.114.797.342 1.084.228.28.482.452.762.517s.823.098 1.631.098h.898v-3.525Zm-132.353 29.326h-6.172V314h-1.377v-10.625h1.377v4.219h6.172v-4.219h1.367V314h-1.367v-5.117Zm13.869 1.592 1.152.605c-.378.742-.814 1.341-1.308 1.797a5.273 5.273 0 0 1-1.67 1.045c-.619.234-1.319.351-2.1.351-1.732 0-3.086-.566-4.063-1.699-.976-1.139-1.464-2.425-1.464-3.857 0-1.348.413-2.549 1.24-3.604 1.048-1.341 2.451-2.011 4.209-2.011 1.81 0 3.255.686 4.336 2.06.768.97 1.159 2.181 1.172 3.633h-9.551c.026 1.237.42 2.253 1.182 3.047.761.788 1.702 1.181 2.822 1.181.54 0 1.064-.094 1.572-.283a4.13 4.13 0 0 0 1.309-.752c.358-.312.745-.817 1.162-1.513Zm0-2.862c-.183-.729-.449-1.312-.801-1.748-.345-.436-.804-.788-1.377-1.054a4.228 4.228 0 0 0-1.807-.401c-1.041 0-1.936.335-2.685 1.006-.547.488-.96 1.221-1.24 2.197h7.91Zm4.562-4.238h8.916V314h-1.367v-9.336h-6.182V314h-1.367v-10.625Zm21.418 7.1 1.153.605c-.378.742-.814 1.341-1.309 1.797a5.262 5.262 0 0 1-1.67 1.045c-.618.234-1.318.351-2.1.351-1.731 0-3.086-.566-4.062-1.699-.977-1.139-1.465-2.425-1.465-3.857a5.69 5.69 0 0 1 1.24-3.604c1.049-1.341 2.451-2.011 4.209-2.011 1.81 0 3.256.686 4.336 2.06.768.97 1.159 2.181 1.172 3.633h-9.551c.026 1.237.42 2.253 1.182 3.047.762.788 1.702 1.181 2.822 1.181.541 0 1.065-.094 1.573-.283.514-.189.95-.439 1.308-.752.358-.312.746-.817 1.162-1.513Zm0-2.862c-.182-.729-.449-1.312-.801-1.748-.345-.436-.804-.788-1.377-1.054a4.223 4.223 0 0 0-1.806-.401c-1.042 0-1.937.335-2.686 1.006-.547.488-.96 1.221-1.24 2.197h7.91Zm4.582-4.238h1.358v1.953c.54-.742 1.162-1.299 1.865-1.67.703-.371 1.488-.556 2.353-.556 1.511 0 2.803.543 3.877 1.63 1.075 1.088 1.612 2.396 1.612 3.926 0 1.563-.534 2.891-1.602 3.985-1.061 1.087-2.344 1.63-3.848 1.63a5.173 5.173 0 0 1-2.333-.527c-.71-.351-1.351-.876-1.924-1.572v5.713h-1.358v-14.512Zm5.469 1.045c-1.185 0-2.184.413-2.998 1.24-.807.827-1.211 1.856-1.211 3.086 0 .807.179 1.533.537 2.178a4.002 4.002 0 0 0 1.553 1.533c.677.378 1.39.566 2.139.566.735 0 1.425-.188 2.07-.566a4.225 4.225 0 0 0 1.553-1.602 4.288 4.288 0 0 0 0-4.296 4.05 4.05 0 0 0-1.534-1.573 4.1 4.1 0 0 0-2.109-.566Zm17.609 6.055 1.153.605c-.378.742-.814 1.341-1.309 1.797a5.262 5.262 0 0 1-1.67 1.045c-.618.234-1.318.351-2.099.351-1.732 0-3.086-.566-4.063-1.699-.976-1.139-1.465-2.425-1.465-3.857a5.69 5.69 0 0 1 1.24-3.604c1.049-1.341 2.452-2.011 4.209-2.011 1.81 0 3.256.686 4.336 2.06.769.97 1.159 2.181 1.172 3.633h-9.55c.026 1.237.419 2.253 1.181 3.047.762.788 1.703 1.181 2.822 1.181.541 0 1.065-.094 1.573-.283.514-.189.95-.439 1.308-.752.358-.312.746-.817 1.162-1.513Zm0-2.862c-.182-.729-.449-1.312-.8-1.748-.345-.436-.804-.788-1.377-1.054a4.228 4.228 0 0 0-1.807-.401c-1.042 0-1.937.335-2.686 1.006-.546.488-.96 1.221-1.24 2.197h7.91Zm12.112 1.27h-6.172V314h-1.377v-10.625h1.377v4.219h6.172v-4.219h1.367V314h-1.367v-5.117Zm9.953-5.781c1.634 0 2.988.592 4.062 1.777.977 1.081 1.465 2.36 1.465 3.838 0 1.484-.517 2.783-1.553 3.896-1.028 1.107-2.353 1.66-3.974 1.66-1.628 0-2.959-.553-3.994-1.66-1.029-1.113-1.543-2.412-1.543-3.896 0-1.472.488-2.748 1.465-3.828 1.074-1.192 2.431-1.787 4.072-1.787Zm0 1.337c-1.133 0-2.106.42-2.92 1.26-.814.84-1.221 1.856-1.221 3.047 0 .768.186 1.484.557 2.149a3.986 3.986 0 0 0 1.504 1.543 4.144 4.144 0 0 0 2.08.537c.755 0 1.448-.179 2.08-.537a3.993 3.993 0 0 0 1.504-1.543 4.339 4.339 0 0 0 .556-2.149c0-1.191-.41-2.207-1.23-3.047-.814-.84-1.784-1.26-2.91-1.26Zm18.889 1.143-1.084.674c-.938-1.244-2.217-1.865-3.838-1.865-1.296 0-2.373.416-3.233 1.25-.853.833-1.279 1.845-1.279 3.037 0 .774.195 1.504.586 2.187a4.181 4.181 0 0 0 1.621 1.592c.69.378 1.462.566 2.314.566 1.563 0 2.839-.621 3.829-1.865l1.084.713a5.14 5.14 0 0 1-2.051 1.777c-.853.417-1.826.625-2.92.625-1.68 0-3.073-.533-4.18-1.601-1.107-1.068-1.66-2.367-1.66-3.897a5.57 5.57 0 0 1 .771-2.861 5.499 5.499 0 0 1 2.139-2.07c.905-.495 1.917-.742 3.037-.742.703 0 1.38.107 2.031.322.658.215 1.215.495 1.67.84.456.345.843.784 1.163 1.318Zm4.503-2.207v7.861l7.803-7.861h.108V314h-1.368v-7.793L822.99 314h-.166v-10.625h1.367Zm22.991 0h.39L851.176 314h-1.426l-2.627-7.822-4.082 7.822h-.254l-4.092-7.822-2.617 7.822h-1.426l3.623-10.625h.371l4.278 8.311 4.258-8.311Zm11.574-.273c1.634 0 2.988.592 4.062 1.777.977 1.081 1.465 2.36 1.465 3.838 0 1.484-.517 2.783-1.553 3.896-1.028 1.107-2.353 1.66-3.974 1.66-1.628 0-2.959-.553-3.994-1.66-1.029-1.113-1.543-2.412-1.543-3.896 0-1.472.488-2.748 1.465-3.828 1.074-1.192 2.431-1.787 4.072-1.787Zm0 1.337c-1.133 0-2.106.42-2.92 1.26-.814.84-1.221 1.856-1.221 3.047 0 .768.186 1.484.557 2.149a3.986 3.986 0 0 0 1.504 1.543 4.144 4.144 0 0 0 2.08.537c.755 0 1.448-.179 2.08-.537a3.993 3.993 0 0 0 1.504-1.543 4.339 4.339 0 0 0 .556-2.149c0-1.191-.41-2.207-1.23-3.047-.814-.84-1.784-1.26-2.91-1.26Zm18.889 1.143-1.084.674c-.938-1.244-2.217-1.865-3.838-1.865-1.296 0-2.373.416-3.233 1.25-.853.833-1.279 1.845-1.279 3.037 0 .774.195 1.504.586 2.187a4.181 4.181 0 0 0 1.621 1.592c.69.378 1.462.566 2.314.566 1.563 0 2.839-.621 3.829-1.865l1.084.713a5.14 5.14 0 0 1-2.051 1.777c-.853.417-1.826.625-2.92.625-1.68 0-3.073-.533-4.18-1.601-1.107-1.068-1.66-2.367-1.66-3.897a5.57 5.57 0 0 1 .771-2.861 5.499 5.499 0 0 1 2.139-2.07c.905-.495 1.917-.742 3.037-.742.703 0 1.38.107 2.031.322.658.215 1.215.495 1.67.84.456.345.844.784 1.163 1.318Zm1.945-2.207h6.992v1.182h-2.812V314h-1.377v-9.443h-2.803v-1.182Zm10.705 4.209h1.299c1.035 0 1.845.081 2.431.244.586.163 1.091.524 1.514 1.084.423.553.635 1.192.635 1.914 0 .873-.306 1.621-.918 2.246-.612.619-1.54.928-2.783.928h-3.535v-10.625h1.357v4.209Zm.049 1.25v4.014h1.572c1.849 0 2.773-.651 2.773-1.953a2.2 2.2 0 0 0-.302-1.094 1.595 1.595 0 0 0-.869-.752c-.378-.143-1.049-.215-2.012-.215h-1.162Z" fill="#fff"/><g filter="url(#d)"><circle cx="1390" cy="238" r="97" fill="#fff"/></g><circle cx="1390" cy="238" r="82.5" stroke="#EE964B"/><path d="M1345.95 233h-1.43v-14.365h7.2v1.416h-5.77V233Zm17.05-3.525 1.15.605c-.38.742-.81 1.341-1.31 1.797-.49.456-1.05.804-1.67 1.045-.62.234-1.32.351-2.1.351-1.73 0-3.08-.566-4.06-1.699-.98-1.139-1.47-2.425-1.47-3.857 0-1.348.42-2.549 1.25-3.604 1.04-1.341 2.45-2.011 4.2-2.011 1.81 0 3.26.686 4.34 2.06.77.97 1.16 2.181 1.17 3.633h-9.55c.03 1.237.42 2.253 1.18 3.047.76.788 1.71 1.181 2.83 1.181.54 0 1.06-.094 1.57-.283.51-.189.95-.439 1.31-.752.35-.312.74-.817 1.16-1.513Zm0-2.862c-.18-.729-.45-1.312-.8-1.748a3.788 3.788 0 0 0-1.38-1.054 4.205 4.205 0 0 0-1.81-.401c-1.04 0-1.93.335-2.68 1.006-.55.488-.96 1.221-1.24 2.197h7.91Zm12.11 1.27h-6.17V233h-1.38v-10.625h1.38v4.219h6.17v-4.219h1.37V233h-1.37v-5.117Zm13.87 1.592 1.15.605c-.38.742-.81 1.341-1.31 1.797-.49.456-1.05.804-1.67 1.045-.62.234-1.32.351-2.1.351-1.73 0-3.08-.566-4.06-1.699-.98-1.139-1.46-2.425-1.46-3.857 0-1.348.41-2.549 1.24-3.604 1.04-1.341 2.45-2.011 4.2-2.011 1.81 0 3.26.686 4.34 2.06.77.97 1.16 2.181 1.17 3.633h-9.55c.03 1.237.42 2.253 1.18 3.047.77.788 1.71 1.181 2.83 1.181.54 0 1.06-.094 1.57-.283.51-.189.95-.439 1.31-.752.35-.312.74-.817 1.16-1.513Zm0-2.862c-.18-.729-.45-1.312-.8-1.748a3.788 3.788 0 0 0-1.38-1.054 4.205 4.205 0 0 0-1.81-.401c-1.04 0-1.93.335-2.68 1.006-.55.488-.96 1.221-1.24 2.197h7.91Zm3.37-4.238h6.99v1.182h-2.81V233h-1.38v-9.443h-2.8v-1.182Zm10.71 0v7.861l7.81-7.861h.1V233h-1.36v-7.793l-7.75 7.793h-.16v-10.625h1.36Zm11.46 0h1.38v4.473l4.91-4.473h1.9l-5.38 4.863 5.81 5.762h-1.93l-4.88-4.912-.43.381V233h-1.38v-10.625Zm21.13 0V233h-1.35v-1.826c-.57.696-1.22 1.221-1.93 1.572-.71.352-1.49.527-2.34.527-1.5 0-2.79-.543-3.86-1.63-1.06-1.094-1.59-2.422-1.59-3.985 0-1.53.54-2.838 1.61-3.926 1.08-1.087 2.37-1.63 3.88-1.63.87 0 1.66.185 2.36.556.71.371 1.33.928 1.87 1.67v-1.953h1.35Zm-5.47 1.045a4.1 4.1 0 0 0-2.11.566c-.65.371-1.16.896-1.54 1.573a4.323 4.323 0 0 0-.57 2.148c0 .749.19 1.465.58 2.148.38.684.89 1.218 1.54 1.602.65.378 1.35.566 2.09.566.75 0 1.46-.188 2.13-.566a3.94 3.94 0 0 0 1.54-1.533c.36-.645.55-1.371.55-2.178 0-1.23-.41-2.259-1.22-3.086s-1.81-1.24-2.99-1.24Zm-92.97 29.463h-6.17V258h-1.38v-10.625h1.38v4.219h6.17v-4.219h1.37V258h-1.37v-5.117Zm15.51-5.508V258h-1.34v-1.826c-.58.696-1.22 1.221-1.94 1.572-.71.352-1.49.527-2.33.527-1.51 0-2.79-.543-3.86-1.63-1.06-1.094-1.59-2.422-1.59-3.985 0-1.53.54-2.838 1.61-3.926 1.07-1.087 2.37-1.63 3.88-1.63.87 0 1.66.185 2.36.556.71.371 1.33.928 1.87 1.67v-1.953h1.34Zm-5.47 1.045c-.76 0-1.46.189-2.11.566-.64.371-1.15.896-1.54 1.573a4.312 4.312 0 0 0-.56 2.148c0 .749.19 1.465.57 2.148.39.684.9 1.218 1.54 1.602.66.378 1.35.566 2.09.566.75 0 1.46-.188 2.13-.566a3.967 3.967 0 0 0 1.55-1.533c.36-.645.54-1.371.54-2.178 0-1.23-.4-2.259-1.22-3.086-.81-.827-1.8-1.24-2.99-1.24Zm19.37 1.162-1.08.674c-.94-1.244-2.22-1.865-3.84-1.865-1.3 0-2.37.416-3.23 1.25-.86.833-1.28 1.845-1.28 3.037 0 .774.19 1.504.58 2.187.4.684.94 1.214 1.62 1.592.69.378 1.47.566 2.32.566 1.56 0 2.84-.621 3.83-1.865l1.08.713a5.145 5.145 0 0 1-2.05 1.777c-.85.417-1.83.625-2.92.625-1.68 0-3.07-.533-4.18-1.601-1.11-1.068-1.66-2.367-1.66-3.897 0-1.028.26-1.982.77-2.861a5.529 5.529 0 0 1 2.14-2.07c.91-.495 1.92-.742 3.04-.742.7 0 1.38.107 2.03.322.66.215 1.21.495 1.67.84.45.345.84.784 1.16 1.318Zm1.95-2.207h6.99v1.182h-2.81V258h-1.38v-9.443h-2.8v-1.182Zm9.36 0h1.36v1.953c.54-.742 1.16-1.299 1.87-1.67.7-.371 1.48-.556 2.35-.556 1.51 0 2.8.543 3.88 1.63 1.07 1.088 1.61 2.396 1.61 3.926 0 1.563-.54 2.891-1.6 3.985-1.06 1.087-2.35 1.63-3.85 1.63-.85 0-1.63-.175-2.34-.527-.7-.351-1.35-.876-1.92-1.572v5.713h-1.36v-14.512Zm5.47 1.045c-1.18 0-2.18.413-3 1.24-.8.827-1.21 1.856-1.21 3.086 0 .807.18 1.533.54 2.178.37.644.88 1.155 1.55 1.533.68.378 1.39.566 2.14.566a4 4 0 0 0 2.07-.566 4.189 4.189 0 0 0 1.55-1.602 4.264 4.264 0 0 0 0-4.296 3.954 3.954 0 0 0-1.53-1.573 4.1 4.1 0 0 0-2.11-.566Zm13.7-1.318c1.63 0 2.98.592 4.06 1.777.97 1.081 1.46 2.36 1.46 3.838 0 1.484-.51 2.783-1.55 3.896-1.03 1.107-2.35 1.66-3.97 1.66-1.63 0-2.96-.553-4-1.66-1.03-1.113-1.54-2.412-1.54-3.896 0-1.472.49-2.748 1.46-3.828 1.08-1.192 2.44-1.787 4.08-1.787Zm0 1.337c-1.14 0-2.11.42-2.92 1.26-.82.84-1.22 1.856-1.22 3.047 0 .768.18 1.484.55 2.149.37.664.87 1.178 1.51 1.543.63.358 1.32.537 2.08.537.75 0 1.44-.179 2.08-.537a3.983 3.983 0 0 0 1.5-1.543c.37-.665.56-1.381.56-2.149 0-1.191-.41-2.207-1.23-3.047-.82-.84-1.79-1.26-2.91-1.26Zm17.52 6.036 1.15.605c-.38.742-.81 1.341-1.31 1.797-.49.456-1.05.804-1.67 1.045-.62.234-1.32.351-2.1.351-1.73 0-3.08-.566-4.06-1.699-.98-1.139-1.47-2.425-1.47-3.857 0-1.348.42-2.549 1.24-3.604 1.05-1.341 2.46-2.011 4.21-2.011 1.81 0 3.26.686 4.34 2.06.77.97 1.16 2.181 1.17 3.633h-9.55c.03 1.237.42 2.253 1.18 3.047.76.788 1.7 1.181 2.82 1.181.54 0 1.07-.094 1.58-.283.51-.189.95-.439 1.31-.752.35-.312.74-.817 1.16-1.513Zm0-2.862c-.19-.729-.45-1.312-.8-1.748a3.788 3.788 0 0 0-1.38-1.054 4.238 4.238 0 0 0-1.81-.401c-1.04 0-1.93.335-2.68 1.006-.55.488-.96 1.221-1.24 2.197h7.91Zm12.11 1.27h-6.17V258h-1.38v-10.625h1.38v4.219h6.17v-4.219h1.37V258h-1.37v-5.117Zm6.29-5.508v7.861l7.8-7.861h.11V258h-1.37v-7.793l-7.74 7.793h-.17v-10.625h1.37Zm15.94 5.869h-.98l-3.02 4.756h-1.48l3.19-4.893c-.79-.097-1.43-.397-1.93-.898-.49-.508-.74-1.136-.74-1.885 0-.937.28-1.663.85-2.178.57-.514 1.32-.771 2.24-.771h3.24V258h-1.37v-4.756Zm0-4.687h-.9c-.87 0-1.46.055-1.76.166-.3.11-.53.302-.71.576-.18.267-.26.628-.26 1.084 0 .436.11.797.34 1.084.23.28.48.452.76.517s.82.098 1.63.098h.9v-3.525Z" fill="#444"/><g filter="url(#e)"><circle cx="930" cy="639" r="145" fill="#fff"/></g><circle cx="930" cy="639" r="122.5" stroke="#EE964B"/><path d="M868.271 619.635h1.446v6.025h7.304v-6.025h1.446V634h-1.446v-6.934h-7.304V634h-1.446v-14.365Zm12.825 3.74h1.445l3.652 8.184 3.545-8.184h1.455l-6.338 14.512h-1.445l2.051-4.688-4.365-9.824Zm11.174 0h6.992v1.182h-2.813V634h-1.377v-9.443h-2.802v-1.182Zm9.367 0h1.357v1.953c.541-.742 1.162-1.299 1.865-1.67.703-.371 1.488-.556 2.354-.556 1.51 0 2.803.543 3.877 1.63 1.074 1.088 1.611 2.396 1.611 3.926 0 1.563-.534 2.891-1.601 3.985-1.062 1.087-2.344 1.63-3.848 1.63a5.18 5.18 0 0 1-2.334-.527c-.71-.351-1.351-.876-1.924-1.572v5.713h-1.357v-14.512Zm5.468 1.045c-1.184 0-2.184.413-2.998 1.24-.807.827-1.211 1.856-1.211 3.086 0 .807.18 1.533.538 2.178a3.999 3.999 0 0 0 1.552 1.533c.677.378 1.39.566 2.139.566a4.02 4.02 0 0 0 2.07-.566 4.218 4.218 0 0 0 1.553-1.602 4.288 4.288 0 0 0 0-4.296 4.055 4.055 0 0 0-1.533-1.573 4.107 4.107 0 0 0-2.11-.566Zm10.032-1.045v7.861l7.802-7.861h.108V634h-1.367v-7.793L915.936 634h-.166v-10.625h1.367Zm10.265 0h6.993v1.182h-2.813V634h-1.377v-9.443h-2.803v-1.182Zm10.715 0v7.861l7.803-7.861h.107V634h-1.367v-7.793L936.916 634h-.166v-10.625h1.367ZM952.66 634h-3.086v-10.625h3.037c1.159 0 1.993.267 2.5.801.515.534.772 1.159.772 1.875 0 1.081-.475 1.813-1.426 2.197 1.38.488 2.07 1.429 2.07 2.822 0 1.953-1.289 2.93-3.867 2.93Zm-1.709-9.443v3.32h.889c.807 0 1.334-.033 1.582-.098.247-.065.478-.224.693-.478.222-.261.332-.602.332-1.026 0-.442-.114-.813-.342-1.113-.227-.299-.468-.475-.722-.527-.248-.052-.762-.078-1.543-.078h-.889Zm0 4.57v3.721h1.465c.69 0 1.182-.043 1.475-.127.299-.091.553-.283.761-.576.215-.293.323-.665.323-1.114 0-.579-.183-1.041-.547-1.386-.365-.346-.847-.518-1.446-.518h-2.031Zm16.028-.244h-6.172V634h-1.377v-10.625h1.377v4.219h6.172v-4.219h1.367V634h-1.367v-5.117Zm15.509-5.508V634h-1.347v-1.826c-.573.696-1.218 1.221-1.934 1.572a5.18 5.18 0 0 1-2.334.527c-1.504 0-2.79-.543-3.857-1.63-1.062-1.094-1.592-2.422-1.592-3.985 0-1.53.537-2.838 1.611-3.926 1.074-1.087 2.367-1.63 3.877-1.63.873 0 1.66.185 2.363.556.71.371 1.332.928 1.866 1.67v-1.953h1.347Zm-5.468 1.045c-.762 0-1.465.189-2.11.566a4.121 4.121 0 0 0-1.543 1.573 4.321 4.321 0 0 0 .01 4.296 4.237 4.237 0 0 0 1.543 1.602 4.094 4.094 0 0 0 2.09.566c.748 0 1.458-.188 2.129-.566a3.936 3.936 0 0 0 1.543-1.533c.364-.645.547-1.371.547-2.178 0-1.23-.407-2.259-1.221-3.086-.807-.827-1.804-1.24-2.988-1.24Zm13.537 4.824h-.977L986.553 634h-1.475l3.193-4.893c-.794-.097-1.438-.397-1.933-.898-.495-.508-.742-1.136-.742-1.885 0-.937.283-1.663.849-2.178.573-.514 1.322-.771 2.246-.771h3.233V634h-1.367v-4.756Zm0-4.687h-.899c-.872 0-1.458.055-1.758.166-.299.11-.537.302-.712.576-.176.267-.264.628-.264 1.084 0 .436.114.797.342 1.084.227.28.481.452.761.517s.824.098 1.631.098h.899v-3.525Zm-165.582 23.818h8.916V659h-1.368v-9.336h-6.181V659h-1.367v-10.625Zm17.502-.273c1.634 0 2.988.592 4.062 1.777.977 1.081 1.465 2.36 1.465 3.838 0 1.484-.518 2.783-1.553 3.896-1.028 1.107-2.353 1.66-3.974 1.66-1.628 0-2.959-.553-3.995-1.66-1.028-1.113-1.543-2.412-1.543-3.896 0-1.472.489-2.748 1.465-3.828 1.075-1.192 2.432-1.787 4.073-1.787Zm0 1.337c-1.133 0-2.107.42-2.92 1.26-.814.84-1.221 1.856-1.221 3.047 0 .768.185 1.484.557 2.149a3.99 3.99 0 0 0 1.503 1.543 4.148 4.148 0 0 0 2.081.537c.755 0 1.448-.179 2.08-.537a4 4 0 0 0 1.504-1.543 4.339 4.339 0 0 0 .556-2.149c0-1.191-.41-2.207-1.23-3.047-.814-.84-1.784-1.26-2.91-1.26Zm8.664 8.399 4.101-9.463h.713l4.072 9.463h1.28v2.519h-1.319V659h-8.789v1.416h-1.347v-2.578h1.289Zm4.433-7.354-3.105 7.354h6.084l-2.979-7.354Zm8.176 7.354 4.102-9.463h.712l4.073 9.463h1.279v2.519h-1.318V659h-8.789v1.416h-1.348v-2.578h1.289Zm4.434-7.354-3.106 7.354h6.084l-2.978-7.354Zm17.033 4.991 1.152.605c-.377.742-.814 1.341-1.308 1.797a5.273 5.273 0 0 1-1.67 1.045c-.619.234-1.319.351-2.1.351-1.732 0-3.086-.566-4.062-1.699-.977-1.139-1.465-2.425-1.465-3.857 0-1.348.413-2.549 1.24-3.604 1.048-1.341 2.451-2.011 4.209-2.011 1.81 0 3.255.686 4.336 2.06.768.97 1.159 2.181 1.172 3.633h-9.551c.026 1.237.42 2.253 1.182 3.047.761.788 1.702 1.181 2.822 1.181.54 0 1.064-.094 1.572-.283a4.13 4.13 0 0 0 1.309-.752c.358-.312.745-.817 1.162-1.513Zm0-2.862c-.182-.729-.449-1.312-.801-1.748-.345-.436-.804-.788-1.377-1.054a4.228 4.228 0 0 0-1.807-.401c-1.041 0-1.936.335-2.685 1.006-.547.488-.96 1.221-1.24 2.197h7.91Zm4.582-4.238h1.357v1.953c.541-.742 1.162-1.299 1.865-1.67.704-.371 1.488-.556 2.354-.556 1.51 0 2.803.543 3.877 1.63 1.074 1.088 1.611 2.396 1.611 3.926 0 1.563-.534 2.891-1.601 3.985-1.061 1.087-2.344 1.63-3.848 1.63a5.18 5.18 0 0 1-2.334-.527c-.71-.351-1.351-.876-1.924-1.572v5.713h-1.357v-14.512Zm5.469 1.045c-1.185 0-2.185.413-2.998 1.24-.808.827-1.211 1.856-1.211 3.086 0 .807.179 1.533.537 2.178a3.999 3.999 0 0 0 1.552 1.533c.678.378 1.39.566 2.139.566a4.02 4.02 0 0 0 2.07-.566 4.218 4.218 0 0 0 1.553-1.602 4.288 4.288 0 0 0 0-4.296 4.048 4.048 0 0 0-1.533-1.573 4.106 4.106 0 0 0-2.109-.566Zm14.113-1.045h1.387v4.697l5.078-4.697h1.67l-5.02 4.736 5.4 5.889h-1.748l-4.599-5.137-.781.655V659h-1.387v-4.482l-.762-.655-4.58 5.137h-1.748l5.342-5.889-4.942-4.736h1.67l5.02 4.697v-4.697Zm10.441 0h1.377v4.473l4.912-4.473h1.905l-5.381 4.863 5.81 5.762h-1.933l-4.883-4.912-.43.381V659h-1.377v-10.625Zm21.125 0V659H939.6v-1.826c-.573.696-1.218 1.221-1.934 1.572a5.18 5.18 0 0 1-2.334.527c-1.504 0-2.79-.543-3.857-1.63-1.062-1.094-1.592-2.422-1.592-3.985 0-1.53.537-2.838 1.611-3.926 1.074-1.087 2.367-1.63 3.877-1.63.872 0 1.66.185 2.363.556.71.371 1.332.928 1.866 1.67v-1.953h1.347Zm-5.468 1.045c-.762 0-1.465.189-2.11.566a4.121 4.121 0 0 0-1.543 1.573 4.321 4.321 0 0 0 .01 4.296 4.237 4.237 0 0 0 1.543 1.602 4.094 4.094 0 0 0 2.09.566c.748 0 1.458-.188 2.129-.566a3.936 3.936 0 0 0 1.543-1.533c.364-.645.547-1.371.547-2.178 0-1.23-.407-2.259-1.221-3.086-.807-.827-1.804-1.24-2.988-1.24Zm15.101-1.045h1.377v4.473l4.912-4.473h1.904l-5.38 4.863 5.81 5.762h-1.933l-4.883-4.912-.43.381V659h-1.377v-10.625Zm10.559 0h1.357v1.953c.54-.742 1.162-1.299 1.865-1.67.703-.371 1.488-.556 2.354-.556 1.51 0 2.803.543 3.877 1.63 1.074 1.088 1.611 2.396 1.611 3.926 0 1.563-.534 2.891-1.601 3.985-1.062 1.087-2.344 1.63-3.848 1.63a5.18 5.18 0 0 1-2.334-.527c-.71-.351-1.351-.876-1.924-1.572v5.713h-1.357v-14.512Zm5.468 1.045c-1.184 0-2.184.413-2.998 1.24-.807.827-1.211 1.856-1.211 3.086 0 .807.179 1.533.538 2.178a3.999 3.999 0 0 0 1.552 1.533c.677.378 1.39.566 2.139.566a4.02 4.02 0 0 0 2.07-.566 4.218 4.218 0 0 0 1.553-1.602 4.288 4.288 0 0 0 0-4.296 4.055 4.055 0 0 0-1.533-1.573 4.107 4.107 0 0 0-2.11-.566Zm19.25-1.045V659h-1.347v-1.826c-.573.696-1.218 1.221-1.934 1.572a5.175 5.175 0 0 1-2.334.527c-1.504 0-2.79-.543-3.857-1.63-1.061-1.094-1.592-2.422-1.592-3.985 0-1.53.537-2.838 1.611-3.926 1.075-1.087 2.367-1.63 3.877-1.63.873 0 1.66.185 2.364.556.709.371 1.331.928 1.865 1.67v-1.953h1.347Zm-5.468 1.045c-.762 0-1.465.189-2.11.566a4.121 4.121 0 0 0-1.543 1.573 4.321 4.321 0 0 0 .01 4.296 4.244 4.244 0 0 0 1.543 1.602 4.094 4.094 0 0 0 2.09.566 4.27 4.27 0 0 0 2.129-.566 3.936 3.936 0 0 0 1.543-1.533c.364-.645.547-1.371.547-2.178 0-1.23-.407-2.259-1.221-3.086-.807-.827-1.803-1.24-2.988-1.24Zm19.367 1.162-1.084.674c-.938-1.244-2.217-1.865-3.838-1.865-1.296 0-2.373.416-3.232 1.25-.853.833-1.28 1.845-1.28 3.037 0 .774.196 1.504.586 2.187a4.188 4.188 0 0 0 1.621 1.592c.69.378 1.462.566 2.315.566 1.562 0 2.838-.621 3.828-1.865l1.084.713a5.14 5.14 0 0 1-2.051 1.777c-.853.417-1.826.625-2.92.625-1.68 0-3.073-.533-4.18-1.601-1.106-1.068-1.66-2.367-1.66-3.897 0-1.028.257-1.982.772-2.861a5.503 5.503 0 0 1 2.138-2.07c.905-.495 1.918-.742 3.038-.742.703 0 1.38.107 2.031.322.657.215 1.214.495 1.67.84.455.345.843.784 1.162 1.318Zm8.164-2.48c1.64 0 2.99.592 4.06 1.777.98 1.081 1.47 2.36 1.47 3.838 0 1.484-.52 2.783-1.55 3.896-1.03 1.107-2.36 1.66-3.98 1.66-1.63 0-2.96-.553-3.99-1.66-1.03-1.113-1.55-2.412-1.55-3.896 0-1.472.49-2.748 1.47-3.828 1.07-1.192 2.43-1.787 4.07-1.787Zm0 1.337c-1.13 0-2.1.42-2.92 1.26-.81.84-1.22 1.856-1.22 3.047 0 .768.19 1.484.56 2.149.37.664.87 1.178 1.5 1.543.63.358 1.33.537 2.08.537.76 0 1.45-.179 2.08-.537a4.078 4.078 0 0 0 1.51-1.543c.37-.665.55-1.381.55-2.149 0-1.191-.41-2.207-1.23-3.047-.81-.84-1.78-1.26-2.91-1.26Zm7.39-1.064h6.99v1.182h-2.81V659h-1.38v-9.443h-2.8v-1.182Zm10.7 4.209h1.3c1.04 0 1.85.081 2.43.244.59.163 1.09.524 1.52 1.084.42.553.63 1.192.63 1.914 0 .873-.31 1.621-.92 2.246-.61.619-1.54.928-2.78.928h-3.54v-10.625h1.36v4.209Zm.05 1.25v4.014h1.57c1.85 0 2.78-.651 2.78-1.953 0-.372-.1-.736-.31-1.094a1.557 1.557 0 0 0-.87-.752c-.37-.143-1.04-.215-2.01-.215h-1.16Zm7.72-5.459h1.37V659h-1.37v-10.625Z" fill="#444"/><circle cx="600.5" cy="710.5" r="101.5" fill="#EE964B"/><circle cx="600.5" cy="710.5" r="87" stroke="#fff"/><path d="m528.512 722 2.041-14.365h.234l5.84 11.787 5.781-11.787h.235l2.06 14.365h-1.416l-1.406-10.273L536.803 722h-.362l-5.146-10.352L529.898 722h-1.386Zm20.676-10.625v7.861l7.802-7.861h.108V722h-1.368v-7.793L547.986 722h-.166v-10.625h1.368Zm11.457 0h1.376v4.473l4.913-4.473h1.904l-5.381 4.863 5.811 5.762h-1.934l-4.883-4.912-.43.381V722h-1.376v-10.625Zm10.558 0h1.358v1.953c.54-.742 1.162-1.299 1.865-1.67.703-.371 1.487-.556 2.353-.556 1.511 0 2.803.543 3.877 1.63 1.074 1.088 1.612 2.396 1.612 3.926 0 1.563-.534 2.891-1.602 3.985-1.061 1.087-2.344 1.63-3.848 1.63a5.18 5.18 0 0 1-2.334-.527c-.709-.351-1.351-.876-1.923-1.572v5.713h-1.358v-14.512Zm5.469 1.045c-1.185 0-2.184.413-2.998 1.24-.807.827-1.211 1.856-1.211 3.086 0 .807.179 1.533.537 2.178a4.002 4.002 0 0 0 1.553 1.533c.677.378 1.39.566 2.138.566.736 0 1.426-.188 2.071-.566a4.215 4.215 0 0 0 1.552-1.602 4.28 4.28 0 0 0 0-4.296 4.041 4.041 0 0 0-1.533-1.573 4.1 4.1 0 0 0-2.109-.566Zm13.693-1.318c1.634 0 2.989.592 4.063 1.777.976 1.081 1.465 2.36 1.465 3.838 0 1.484-.518 2.783-1.553 3.896-1.029 1.107-2.354 1.66-3.975 1.66-1.627 0-2.959-.553-3.994-1.66-1.029-1.113-1.543-2.412-1.543-3.896 0-1.472.488-2.748 1.465-3.828 1.074-1.192 2.432-1.787 4.072-1.787Zm0 1.337c-1.133 0-2.106.42-2.92 1.26-.813.84-1.22 1.856-1.22 3.047 0 .768.185 1.484.556 2.149a3.993 3.993 0 0 0 1.504 1.543 4.146 4.146 0 0 0 2.08.537c.755 0 1.449-.179 2.08-.537a3.986 3.986 0 0 0 1.504-1.543 4.34 4.34 0 0 0 .557-2.149c0-1.191-.41-2.207-1.231-3.047-.813-.84-1.783-1.26-2.91-1.26Zm17.199-5.166h1.358v5.704c.853-1.211 2.08-1.817 3.682-1.817 1.542 0 2.835.524 3.876 1.572 1.049 1.049 1.573 2.393 1.573 4.034 0 1.621-.528 2.952-1.582 3.994-1.055 1.041-2.331 1.562-3.828 1.562-1.641 0-2.881-.638-3.721-1.914v5.479h-1.358v-5.479c-.826 1.283-2.076 1.924-3.75 1.924-1.471 0-2.737-.521-3.798-1.562-1.055-1.042-1.582-2.377-1.582-4.004 0-1.641.52-2.985 1.562-4.034 1.048-1.048 2.344-1.572 3.887-1.572 1.634 0 2.861.606 3.681 1.817v-5.704Zm1.319 9.668c0 1.27.361 2.266 1.084 2.989.722.722 1.553 1.084 2.49 1.084 1.276 0 2.298-.424 3.066-1.27.769-.846 1.153-1.865 1.153-3.056 0-1.231-.407-2.253-1.221-3.067-.807-.814-1.777-1.221-2.91-1.221-1.022 0-1.888.365-2.598 1.094-.709.723-1.064 1.872-1.064 3.447Zm-9.072-.244c0 1.185.38 2.201 1.142 3.047.768.846 1.794 1.27 3.076 1.27.443 0 .918-.111 1.426-.332.508-.228.915-.511 1.221-.85a3.44 3.44 0 0 0 .703-1.191c.156-.45.234-1.107.234-1.973 0-1.38-.358-2.435-1.074-3.164-.716-.736-1.582-1.104-2.598-1.104-1.139 0-2.112.407-2.92 1.221-.807.814-1.21 1.839-1.21 3.076ZM630.076 722h-1.455l-3.555-7.734-3.525 7.734h-1.465l4.863-10.625h.245L630.076 722Zm7.629-10.898c1.634 0 2.988.592 4.063 1.777.976 1.081 1.464 2.36 1.464 3.838 0 1.484-.517 2.783-1.552 3.896-1.029 1.107-2.354 1.66-3.975 1.66-1.628 0-2.959-.553-3.994-1.66-1.029-1.113-1.543-2.412-1.543-3.896 0-1.472.488-2.748 1.465-3.828 1.074-1.192 2.431-1.787 4.072-1.787Zm0 1.337c-1.133 0-2.106.42-2.92 1.26-.814.84-1.221 1.856-1.221 3.047 0 .768.186 1.484.557 2.149a3.986 3.986 0 0 0 1.504 1.543 4.146 4.146 0 0 0 2.08.537c.755 0 1.449-.179 2.08-.537a3.986 3.986 0 0 0 1.504-1.543 4.34 4.34 0 0 0 .557-2.149c0-1.191-.41-2.207-1.231-3.047-.814-.84-1.784-1.26-2.91-1.26Zm8.596-1.064h1.357v1.953c.541-.742 1.162-1.299 1.865-1.67.704-.371 1.488-.556 2.354-.556 1.51 0 2.803.543 3.877 1.63 1.074 1.088 1.611 2.396 1.611 3.926 0 1.563-.534 2.891-1.601 3.985-1.062 1.087-2.344 1.63-3.848 1.63a5.18 5.18 0 0 1-2.334-.527c-.71-.351-1.351-.876-1.924-1.572v5.713h-1.357v-14.512Zm5.469 1.045c-1.185 0-2.185.413-2.999 1.24-.807.827-1.21 1.856-1.21 3.086 0 .807.179 1.533.537 2.178a3.999 3.999 0 0 0 1.552 1.533c.677.378 1.39.566 2.139.566a4.02 4.02 0 0 0 2.07-.566 4.218 4.218 0 0 0 1.553-1.602 4.288 4.288 0 0 0 0-4.296 4.048 4.048 0 0 0-1.533-1.573 4.106 4.106 0 0 0-2.109-.566Zm19.25-1.045V722h-1.348v-1.826c-.573.696-1.218 1.221-1.934 1.572a5.175 5.175 0 0 1-2.334.527c-1.504 0-2.789-.543-3.857-1.63-1.061-1.094-1.592-2.422-1.592-3.985 0-1.53.537-2.838 1.611-3.926 1.075-1.087 2.367-1.63 3.877-1.63.873 0 1.661.185 2.364.556.709.371 1.331.928 1.865 1.67v-1.953h1.348Zm-5.469 1.045c-.762 0-1.465.189-2.11.566a4.129 4.129 0 0 0-1.543 1.573 4.321 4.321 0 0 0 .01 4.296 4.244 4.244 0 0 0 1.543 1.602 4.094 4.094 0 0 0 2.09.566 4.27 4.27 0 0 0 2.129-.566 3.936 3.936 0 0 0 1.543-1.533c.364-.645.547-1.371.547-2.178 0-1.23-.407-2.259-1.221-3.086-.807-.827-1.803-1.24-2.988-1.24Z" fill="#fff"/><circle cx="1164.5" cy="485.5" r="71.5" fill="#EE964B"/><circle cx="1164.5" cy="485.5" r="61" stroke="#fff"/><path d="M1129.1 493.148h-1.42v-3.486h1.18l5.63-13.027h.5l5.95 13.027h1.12v3.486h-1.42V491h-11.54v2.148Zm1.38-3.486h8.76l-4.5-10.058-4.26 10.058Zm22.84-2.187 1.15.605c-.37.742-.81 1.341-1.31 1.797-.49.456-1.05.804-1.67 1.045-.61.234-1.31.351-2.1.351-1.73 0-3.08-.566-4.06-1.699-.97-1.139-1.46-2.425-1.46-3.857 0-1.348.41-2.549 1.24-3.604 1.05-1.341 2.45-2.011 4.21-2.011 1.81 0 3.25.686 4.33 2.06.77.97 1.16 2.181 1.17 3.633h-9.55c.03 1.237.42 2.253 1.19 3.047.76.788 1.7 1.181 2.82 1.181.54 0 1.06-.094 1.57-.283.51-.189.95-.439 1.31-.752.36-.312.74-.817 1.16-1.513Zm0-2.862c-.18-.729-.45-1.312-.8-1.748-.35-.436-.8-.788-1.38-1.054a4.194 4.194 0 0 0-1.8-.401c-1.05 0-1.94.335-2.69 1.006-.55.488-.96 1.221-1.24 2.197h7.91Zm3.37-4.238h6.99v1.182h-2.81V491h-1.38v-9.443h-2.8v-1.182Zm14.38-.273c1.63 0 2.99.592 4.06 1.777.98 1.081 1.47 2.36 1.47 3.838 0 1.484-.52 2.783-1.56 3.896-1.03 1.107-2.35 1.66-3.97 1.66-1.63 0-2.96-.553-4-1.66-1.02-1.113-1.54-2.412-1.54-3.896 0-1.472.49-2.748 1.47-3.828 1.07-1.192 2.43-1.787 4.07-1.787Zm0 1.337c-1.13 0-2.11.42-2.92 1.26-.82.84-1.22 1.856-1.22 3.047 0 .768.18 1.484.55 2.149.38.664.88 1.178 1.51 1.543.63.358 1.32.537 2.08.537.75 0 1.45-.179 2.08-.537a3.983 3.983 0 0 0 1.5-1.543c.37-.665.56-1.381.56-2.149 0-1.191-.41-2.207-1.23-3.047-.82-.84-1.79-1.26-2.91-1.26Zm8.57-1.064h1.38v4.473l4.91-4.473h1.91l-5.38 4.863 5.81 5.762h-1.94l-4.88-4.912-.43.381V491h-1.38v-10.625Zm20.86 2.207-1.09.674c-.94-1.244-2.21-1.865-3.84-1.865-1.29 0-2.37.416-3.23 1.25-.85.833-1.28 1.845-1.28 3.037 0 .774.2 1.504.59 2.187.4.684.94 1.214 1.62 1.592.69.378 1.46.566 2.31.566 1.57 0 2.84-.621 3.83-1.865l1.09.713a5.213 5.213 0 0 1-2.05 1.777c-.86.417-1.83.625-2.92.625-1.68 0-3.08-.533-4.18-1.601-1.11-1.068-1.66-2.367-1.66-3.897 0-1.028.25-1.982.77-2.861a5.462 5.462 0 0 1 2.14-2.07c.9-.495 1.91-.742 3.03-.742.71 0 1.38.107 2.03.322.66.215 1.22.495 1.67.84.46.345.85.784 1.17 1.318Z" fill="#fff"/><g filter="url(#f)"><circle cx="1357.5" cy="644.5" r="97.5" fill="#fff"/></g><circle cx="1357.5" cy="644.5" r="84" stroke="#EE964B"/><path d="M1295.92 627.031v-1.396h7.88v1.396h-3.2V640h-1.46v-12.969h-3.22Zm10.24 2.344h1.36v1.953c.54-.742 1.16-1.299 1.86-1.67.71-.371 1.49-.556 2.36-.556 1.51 0 2.8.543 3.87 1.63 1.08 1.088 1.61 2.396 1.61 3.926 0 1.563-.53 2.891-1.6 3.985-1.06 1.087-2.34 1.63-3.84 1.63-.85 0-1.63-.175-2.34-.527-.71-.351-1.35-.876-1.92-1.572v5.713h-1.36v-14.512Zm5.47 1.045c-1.19 0-2.19.413-3 1.24s-1.21 1.856-1.21 3.086c0 .807.18 1.533.54 2.178.36.644.88 1.155 1.55 1.533.68.378 1.39.566 2.14.566.73 0 1.42-.188 2.07-.566a4.189 4.189 0 0 0 1.55-1.602 4.264 4.264 0 0 0 0-4.296 4.125 4.125 0 0 0-3.64-2.139Zm17.61 6.055 1.15.605c-.38.742-.81 1.341-1.31 1.797-.49.456-1.05.804-1.67 1.045-.62.234-1.32.351-2.1.351-1.73 0-3.08-.566-4.06-1.699-.98-1.139-1.46-2.425-1.46-3.857 0-1.348.41-2.549 1.24-3.604 1.04-1.341 2.45-2.011 4.2-2.011 1.81 0 3.26.686 4.34 2.06.77.97 1.16 2.181 1.17 3.633h-9.55c.03 1.237.42 2.253 1.18 3.047.76.788 1.71 1.181 2.83 1.181.54 0 1.06-.094 1.57-.283.51-.189.95-.439 1.31-.752.35-.312.74-.817 1.16-1.513Zm0-2.862c-.18-.729-.45-1.312-.8-1.748a3.788 3.788 0 0 0-1.38-1.054 4.205 4.205 0 0 0-1.81-.401c-1.04 0-1.93.335-2.68 1.006-.55.488-.96 1.221-1.24 2.197h7.91Zm12.11 1.27h-6.17V640h-1.38v-10.625h1.38v4.219h6.17v-4.219h1.37V640h-1.37v-5.117Zm6.29-5.508v7.861l7.8-7.861h.11V640h-1.37v-7.793l-7.74 7.793h-.17v-10.625h1.37Zm11.48 0h1.35v1.953c.54-.742 1.17-1.299 1.87-1.67.7-.371 1.49-.556 2.35-.556 1.51 0 2.81.543 3.88 1.63 1.07 1.088 1.61 2.396 1.61 3.926 0 1.563-.53 2.891-1.6 3.985-1.06 1.087-2.34 1.63-3.85 1.63-.84 0-1.62-.175-2.33-.527-.71-.351-1.35-.876-1.93-1.572v5.713h-1.35v-14.512Zm5.47 1.045c-1.19 0-2.19.413-3 1.24s-1.21 1.856-1.21 3.086c0 .807.18 1.533.53 2.178.37.644.89 1.155 1.56 1.533.67.378 1.39.566 2.14.566.73 0 1.42-.188 2.07-.566.65-.384 1.16-.918 1.55-1.602a4.323 4.323 0 0 0 0-4.296 4.125 4.125 0 0 0-3.64-2.139Zm13.69-1.318c1.63 0 2.99.592 4.06 1.777.98 1.081 1.47 2.36 1.47 3.838 0 1.484-.52 2.783-1.56 3.896-1.02 1.107-2.35 1.66-3.97 1.66-1.63 0-2.96-.553-3.99-1.66-1.03-1.113-1.55-2.412-1.55-3.896 0-1.472.49-2.748 1.47-3.828 1.07-1.192 2.43-1.787 4.07-1.787Zm0 1.337c-1.13 0-2.11.42-2.92 1.26-.81.84-1.22 1.856-1.22 3.047 0 .768.18 1.484.56 2.149.37.664.87 1.178 1.5 1.543.63.358 1.32.537 2.08.537.75 0 1.45-.179 2.08-.537a3.983 3.983 0 0 0 1.5-1.543c.37-.665.56-1.381.56-2.149 0-1.191-.41-2.207-1.23-3.047-.81-.84-1.78-1.26-2.91-1.26Zm11.66 9.561h-3.08v-10.625h3.03c1.16 0 1.99.267 2.5.801.52.534.77 1.159.77 1.875 0 1.081-.47 1.813-1.42 2.197 1.38.488 2.07 1.429 2.07 2.822 0 1.953-1.29 2.93-3.87 2.93Zm-1.71-9.443v3.32h.89c.81 0 1.34-.033 1.58-.098.25-.065.48-.224.7-.478.22-.261.33-.602.33-1.026 0-.442-.12-.813-.34-1.113-.23-.299-.47-.475-.73-.527-.24-.052-.76-.078-1.54-.078h-.89Zm0 4.57v3.721h1.47c.69 0 1.18-.043 1.47-.127.3-.091.56-.283.76-.576.22-.293.33-.665.33-1.114 0-.579-.19-1.041-.55-1.386-.37-.346-.85-.518-1.45-.518h-2.03Zm8.48-5.752h1.38v4.473l4.91-4.473h1.9l-5.38 4.863 5.81 5.762h-1.93l-4.88-4.912-.43.381V640h-1.38v-10.625Zm21.13 0V640h-1.35v-1.826c-.57.696-1.22 1.221-1.94 1.572-.7.352-1.48.527-2.33.527-1.5 0-2.79-.543-3.86-1.63-1.06-1.094-1.59-2.422-1.59-3.985 0-1.53.54-2.838 1.61-3.926 1.08-1.087 2.37-1.63 3.88-1.63.87 0 1.66.185 2.36.556.71.371 1.33.928 1.87 1.67v-1.953h1.35Zm-5.47 1.045a4.1 4.1 0 0 0-2.11.566c-.65.371-1.16.896-1.55 1.573a4.356 4.356 0 0 0 .01 4.296c.39.684.9 1.218 1.55 1.602.65.378 1.35.566 2.09.566.75 0 1.46-.188 2.13-.566a3.94 3.94 0 0 0 1.54-1.533c.36-.645.55-1.371.55-2.178 0-1.23-.41-2.259-1.22-3.086s-1.81-1.24-2.99-1.24Zm-116.48 23.955v7.861l7.81-7.861h.1V665h-1.36v-7.793l-7.75 7.793h-.16v-10.625h1.36Zm22.99 0h.4l3.6 10.625h-1.43l-2.62-7.822-4.09 7.822h-.25l-4.09-7.822-2.62 7.822h-1.42l3.62-10.625h.37l4.28 8.311 4.25-8.311Zm18.08 0h.39l3.61 10.625h-1.43l-2.63-7.822-4.08 7.822h-.25l-4.09-7.822-2.62 7.822h-1.43l3.63-10.625h.37l4.28 8.311 4.25-8.311Zm5.41 0h1.44l3.65 8.184 3.55-8.184h1.45l-6.34 14.512h-1.44l2.05-4.688-4.36-9.824Zm19.91 5.508h-6.17V665h-1.38v-10.625h1.38v4.219h6.17v-4.219h1.37V665h-1.37v-5.117Zm6.29-5.508v7.861l7.8-7.861h.11V665h-1.37v-7.793l-7.74 7.793h-.17v-10.625h1.37Zm10.27 0h6.99v1.182h-2.81V665h-1.38v-9.443h-2.8v-1.182Zm18.29 7.1 1.15.605c-.38.742-.81 1.341-1.31 1.797-.49.456-1.05.804-1.67 1.045-.62.234-1.32.351-2.1.351-1.73 0-3.08-.566-4.06-1.699-.98-1.139-1.46-2.425-1.46-3.857 0-1.348.41-2.549 1.24-3.604 1.04-1.341 2.45-2.011 4.2-2.011 1.81 0 3.26.686 4.34 2.06.77.97 1.16 2.181 1.17 3.633h-9.55c.03 1.237.42 2.253 1.18 3.047.77.788 1.71 1.181 2.83 1.181.54 0 1.06-.094 1.57-.283.51-.189.95-.439 1.31-.752.35-.312.74-.817 1.16-1.513Zm0-2.862c-.18-.729-.45-1.312-.8-1.748a3.788 3.788 0 0 0-1.38-1.054 4.205 4.205 0 0 0-1.81-.401c-1.04 0-1.93.335-2.68 1.006-.55.488-.96 1.221-1.24 2.197h7.91Zm3.37-4.238h6.99v1.182h-2.81V665h-1.38v-9.443h-2.8v-1.182Zm19.93 0V665h-1.34v-1.826c-.58.696-1.22 1.221-1.94 1.572-.71.352-1.49.527-2.33.527-1.51 0-2.79-.543-3.86-1.63-1.06-1.094-1.59-2.422-1.59-3.985 0-1.53.54-2.838 1.61-3.926 1.07-1.087 2.37-1.63 3.88-1.63.87 0 1.66.185 2.36.556.71.371 1.33.928 1.87 1.67v-1.953h1.34Zm-5.47 1.045c-.76 0-1.46.189-2.1.566-.65.371-1.16.896-1.55 1.573a4.312 4.312 0 0 0-.56 2.148c0 .749.19 1.465.57 2.148.39.684.9 1.218 1.55 1.602a4.07 4.07 0 0 0 2.09.566c.74 0 1.45-.188 2.12-.566a3.967 3.967 0 0 0 1.55-1.533c.36-.645.54-1.371.54-2.178 0-1.23-.4-2.259-1.22-3.086-.8-.827-1.8-1.24-2.99-1.24Z" fill="#444"/><circle cx="1605.5" cy="399.5" r="105.5" fill="#fff"/><circle cx="1605.5" cy="399.5" r="90" stroke="#EE964B"/><path d="M1536.56 395h-1.43v-14.365h7.2v1.416h-5.77V395Zm17.05-3.525 1.15.605c-.38.742-.81 1.341-1.31 1.797-.49.456-1.05.804-1.67 1.045-.62.234-1.32.351-2.1.351-1.73 0-3.08-.566-4.06-1.699-.98-1.139-1.46-2.425-1.46-3.857 0-1.348.41-2.549 1.24-3.604 1.04-1.341 2.45-2.011 4.21-2.011 1.81 0 3.25.686 4.33 2.06.77.97 1.16 2.181 1.17 3.633h-9.55c.03 1.237.42 2.253 1.18 3.047.77.788 1.71 1.181 2.83 1.181.54 0 1.06-.094 1.57-.283.51-.189.95-.439 1.31-.752.36-.312.74-.817 1.16-1.513Zm0-2.862c-.18-.729-.45-1.312-.8-1.748a3.788 3.788 0 0 0-1.38-1.054 4.205 4.205 0 0 0-1.81-.401c-1.04 0-1.93.335-2.68 1.006-.55.488-.96 1.221-1.24 2.197h7.91Zm12.11 1.27h-6.17V395h-1.38v-10.625h1.38v4.219h6.17v-4.219h1.37V395h-1.37v-5.117Zm13.87 1.592 1.15.605c-.38.742-.81 1.341-1.31 1.797-.49.456-1.05.804-1.67 1.045-.61.234-1.31.351-2.1.351-1.73 0-3.08-.566-4.06-1.699-.98-1.139-1.46-2.425-1.46-3.857 0-1.348.41-2.549 1.24-3.604 1.05-1.341 2.45-2.011 4.21-2.011 1.81 0 3.25.686 4.33 2.06.77.97 1.16 2.181 1.17 3.633h-9.55c.03 1.237.42 2.253 1.18 3.047.77.788 1.71 1.181 2.83 1.181.54 0 1.06-.094 1.57-.283.51-.189.95-.439 1.31-.752.36-.312.74-.817 1.16-1.513Zm0-2.862c-.18-.729-.45-1.312-.8-1.748-.35-.436-.8-.788-1.38-1.054a4.194 4.194 0 0 0-1.8-.401c-1.05 0-1.94.335-2.69 1.006-.55.488-.96 1.221-1.24 2.197h7.91Zm3.37-4.238h6.99v1.182h-2.81V395h-1.38v-9.443h-2.8v-1.182Zm10.72 0v7.861l7.8-7.861h.11V395h-1.37v-7.793l-7.75 7.793h-.16v-10.625h1.37Zm16.21 5.83h-2.4c-1.09 0-1.9-.28-2.43-.84-.52-.56-.78-1.338-.78-2.334v-2.656h1.34v1.924c0 1.237.18 2.005.53 2.305.35.292.93.439 1.74.439h2v-4.668h1.36V395h-1.36v-4.795Zm13.85 1.27 1.15.605c-.38.742-.81 1.341-1.31 1.797-.49.456-1.05.804-1.67 1.045-.62.234-1.32.351-2.1.351-1.73 0-3.08-.566-4.06-1.699-.98-1.139-1.46-2.425-1.46-3.857 0-1.348.41-2.549 1.24-3.604 1.04-1.341 2.45-2.011 4.2-2.011 1.81 0 3.26.686 4.34 2.06.77.97 1.16 2.181 1.17 3.633h-9.55c.03 1.237.42 2.253 1.18 3.047.76.788 1.71 1.181 2.83 1.181.54 0 1.06-.094 1.57-.283.51-.189.95-.439 1.31-.752.35-.312.74-.817 1.16-1.513Zm0-2.862c-.18-.729-.45-1.312-.8-1.748a3.788 3.788 0 0 0-1.38-1.054 4.205 4.205 0 0 0-1.81-.401c-1.04 0-1.93.335-2.68 1.006-.55.488-.96 1.221-1.24 2.197h7.91Zm14.87-2.031-1.08.674c-.94-1.244-2.22-1.865-3.84-1.865-1.29 0-2.37.416-3.23 1.25-.85.833-1.28 1.845-1.28 3.037 0 .774.2 1.504.59 2.187.39.684.93 1.214 1.62 1.592.69.378 1.46.566 2.31.566 1.56 0 2.84-.621 3.83-1.865l1.08.713c-.5.762-1.19 1.354-2.05 1.777-.85.417-1.82.625-2.92.625-1.68 0-3.07-.533-4.18-1.601-1.1-1.068-1.66-2.367-1.66-3.897 0-1.028.26-1.982.77-2.861a5.598 5.598 0 0 1 2.14-2.07c.91-.495 1.92-.742 3.04-.742.7 0 1.38.107 2.03.322.66.215 1.22.495 1.67.84.46.345.84.784 1.16 1.318Zm3.14-2.207h1.38v4.473l4.91-4.473h1.9l-5.38 4.863 5.81 5.762h-1.93l-4.88-4.912-.43.381V395h-1.38v-10.625Zm11.91 0v7.861l7.8-7.861h.11V395h-1.37v-7.793l-7.74 7.793h-.17v-10.625h1.37Zm20.4 7.1 1.15.605c-.38.742-.81 1.341-1.31 1.797-.49.456-1.05.804-1.67 1.045-.62.234-1.32.351-2.1.351-1.73 0-3.08-.566-4.06-1.699-.98-1.139-1.46-2.425-1.46-3.857 0-1.348.41-2.549 1.24-3.604 1.04-1.341 2.45-2.011 4.2-2.011 1.81 0 3.26.686 4.34 2.06.77.97 1.16 2.181 1.17 3.633h-9.55c.03 1.237.42 2.253 1.18 3.047.77.788 1.71 1.181 2.83 1.181.54 0 1.06-.094 1.57-.283.51-.189.95-.439 1.31-.752.35-.312.74-.817 1.16-1.513Zm0-2.862c-.18-.729-.45-1.312-.8-1.748a3.788 3.788 0 0 0-1.38-1.054 4.205 4.205 0 0 0-1.81-.401c-1.04 0-1.93.335-2.68 1.006-.55.488-.96 1.221-1.24 2.197h7.91Zm-118.61 20.762h8.91V420H1563v-9.336h-6.19V420h-1.36v-10.625Zm23.06 0V420h-1.35v-1.826c-.57.696-1.22 1.221-1.94 1.572-.71.352-1.48.527-2.33.527-1.5 0-2.79-.543-3.86-1.63-1.06-1.094-1.59-2.422-1.59-3.985 0-1.53.54-2.838 1.61-3.926 1.08-1.087 2.37-1.63 3.88-1.63.87 0 1.66.185 2.36.556.71.371 1.33.928 1.87 1.67v-1.953h1.35Zm-5.47 1.045a4.1 4.1 0 0 0-2.11.566c-.65.371-1.16.896-1.55 1.573a4.356 4.356 0 0 0 .01 4.296c.39.684.9 1.218 1.55 1.602.65.378 1.35.566 2.09.566.75 0 1.46-.188 2.13-.566a3.94 3.94 0 0 0 1.54-1.533c.36-.645.55-1.371.55-2.178 0-1.23-.41-2.259-1.22-3.086s-1.81-1.24-2.99-1.24Zm19.36 1.162-1.08.674c-.94-1.244-2.22-1.865-3.84-1.865-1.29 0-2.37.416-3.23 1.25-.85.833-1.28 1.845-1.28 3.037 0 .774.2 1.504.59 2.187.39.684.93 1.214 1.62 1.592.69.378 1.46.566 2.31.566 1.56 0 2.84-.621 3.83-1.865l1.08.713c-.5.762-1.19 1.354-2.05 1.777-.85.417-1.82.625-2.92.625-1.68 0-3.07-.533-4.18-1.601-1.1-1.068-1.66-2.367-1.66-3.897 0-1.028.26-1.982.78-2.861a5.502 5.502 0 0 1 2.13-2.07c.91-.495 1.92-.742 3.04-.742.7 0 1.38.107 2.03.322.66.215 1.22.495 1.67.84.46.345.85.784 1.16 1.318Zm3.14-2.207h8.92V420h-1.37v-9.336h-6.18V420h-1.37v-10.625Zm17.5-.273c1.64 0 2.99.592 4.07 1.777.97 1.081 1.46 2.36 1.46 3.838 0 1.484-.52 2.783-1.55 3.896-1.03 1.107-2.36 1.66-3.98 1.66s-2.96-.553-3.99-1.66c-1.03-1.113-1.54-2.412-1.54-3.896 0-1.472.48-2.748 1.46-3.828 1.07-1.192 2.43-1.787 4.07-1.787Zm0 1.337c-1.13 0-2.1.42-2.92 1.26-.81.84-1.22 1.856-1.22 3.047 0 .768.19 1.484.56 2.149.37.664.87 1.178 1.5 1.543.63.358 1.33.537 2.08.537.76 0 1.45-.179 2.08-.537a4.007 4.007 0 0 0 1.51-1.543c.37-.665.55-1.381.55-2.149 0-1.191-.41-2.207-1.23-3.047-.81-.84-1.78-1.26-2.91-1.26Zm8.6-1.064h1.36v1.953c.54-.742 1.16-1.299 1.86-1.67.7-.371 1.49-.556 2.35-.556 1.52 0 2.81.543 3.88 1.63 1.08 1.088 1.61 2.396 1.61 3.926 0 1.563-.53 2.891-1.6 3.985-1.06 1.087-2.34 1.63-3.85 1.63-.84 0-1.62-.175-2.33-.527-.71-.351-1.35-.876-1.92-1.572v5.713h-1.36v-14.512Zm5.47 1.045c-1.19 0-2.19.413-3 1.24s-1.21 1.856-1.21 3.086c0 .807.18 1.533.54 2.178.36.644.88 1.155 1.55 1.533.68.378 1.39.566 2.14.566.73 0 1.42-.188 2.07-.566a4.189 4.189 0 0 0 1.55-1.602c.38-.683.58-1.399.58-2.148 0-.755-.2-1.471-.58-2.148a4.125 4.125 0 0 0-3.64-2.139Zm7.47-1.045h6.99v1.182h-2.81V420h-1.38v-9.443h-2.8v-1.182Zm19.93 0V420h-1.34v-1.826c-.58.696-1.22 1.221-1.94 1.572-.71.352-1.49.527-2.33.527-1.51 0-2.79-.543-3.86-1.63-1.06-1.094-1.59-2.422-1.59-3.985 0-1.53.54-2.838 1.61-3.926 1.07-1.087 2.37-1.63 3.88-1.63.87 0 1.66.185 2.36.556.71.371 1.33.928 1.87 1.67v-1.953h1.34Zm-5.47 1.045c-.76 0-1.46.189-2.1.566-.65.371-1.16.896-1.55 1.573a4.312 4.312 0 0 0-.56 2.148c0 .749.19 1.465.57 2.148.39.684.9 1.218 1.55 1.602a4.07 4.07 0 0 0 2.09.566c.74 0 1.45-.188 2.12-.566a3.967 3.967 0 0 0 1.55-1.533c.36-.645.54-1.371.54-2.178 0-1.23-.4-2.259-1.22-3.086-.8-.827-1.8-1.24-2.99-1.24Z" fill="#444"/><g filter="url(#g)"><circle cx="1646.5" cy="159.5" r="69.5" fill="#fff"/></g><circle cx="1646.5" cy="159.5" r="57.5" stroke="#EE964B"/><path d="M1606.6 168v-11.492h5.75v1.133h-4.62v3.671h.54c1.43 0 2.47.128 3.11.383.66.25 1.17.649 1.54 1.196.37.541.56 1.145.56 1.812 0 .875-.33 1.643-.99 2.305-.65.661-1.57.992-2.74.992h-3.15Zm1.13-5.531v4.406h1.41c.84 0 1.46-.081 1.85-.242.39-.167.7-.419.93-.758.23-.344.35-.727.35-1.148 0-.532-.17-.982-.49-1.352-.33-.37-.74-.612-1.23-.727-.49-.119-1.22-.179-2.18-.179h-.64Zm9.36-2.969v6.289l6.24-6.289h.09v8.5h-1.1v-6.234l-6.19 6.234h-.13v-8.5h1.09Zm13.19-.219c1.31 0 2.39.474 3.25 1.422.78.865 1.17 1.888 1.17 3.07 0 1.188-.41 2.227-1.24 3.118-.83.885-1.88 1.328-3.18 1.328-1.3 0-2.37-.443-3.2-1.328-.82-.891-1.23-1.93-1.23-3.118 0-1.177.39-2.197 1.17-3.062.86-.953 1.95-1.43 3.26-1.43Zm0 1.071c-.91 0-1.69.336-2.34 1.007-.65.672-.97 1.485-.97 2.438 0 .614.14 1.187.44 1.719.3.531.7.942 1.2 1.234.51.286 1.06.43 1.67.43.6 0 1.16-.144 1.66-.43.51-.292.91-.703 1.21-1.234a3.54 3.54 0 0 0 .44-1.719c0-.953-.33-1.766-.98-2.438-.65-.671-1.43-1.007-2.33-1.007Zm5.89-.852h1.31l2.25 3.148 2.25-3.148h1.32l-2.91 4.039 3.27 4.461h-1.33l-2.6-3.57-2.56 3.57h-1.3l3.21-4.461-2.91-4.039Zm17.53 0v8.5h-1.08v-1.461c-.46.557-.98.977-1.55 1.258-.57.281-1.19.422-1.87.422-1.2 0-2.23-.435-3.08-1.305-.85-.875-1.28-1.937-1.28-3.187 0-1.224.43-2.271 1.29-3.141.86-.87 1.9-1.305 3.1-1.305.7 0 1.33.149 1.89.446.57.296 1.07.742 1.5 1.335V159.5h1.08Zm-4.38.836c-.61 0-1.17.151-1.69.453-.51.297-.92.716-1.23 1.258-.3.542-.45 1.114-.45 1.719 0 .599.15 1.172.46 1.718a3.28 3.28 0 0 0 2.9 1.735c.6 0 1.17-.151 1.71-.453.53-.302.94-.711 1.23-1.227.29-.516.44-1.096.44-1.742 0-.985-.33-1.807-.98-2.469-.64-.661-1.44-.992-2.39-.992Zm7.24-.836h1.11v3.578l3.93-3.578h1.52l-4.31 3.891 4.65 4.609h-1.54l-3.91-3.93-.34.305V168h-1.11v-8.5Zm9.53 0v6.289l6.24-6.289h.09v8.5h-1.1v-6.234l-6.19 6.234h-.13v-8.5h1.09Zm15.2 4.406h-4.93V168h-1.11v-8.5h1.11v3.375h4.93V159.5h1.1v8.5h-1.1v-4.094Zm5.03-3.445V168h-1.09v-8.5h4.3v.961h-3.21Z" fill="#444"/><g filter="url(#h)"><circle cx="1644.5" cy="639.5" r="71.5" fill="#fff"/></g><circle cx="1644.5" cy="639.5" r="56.5" stroke="#EE964B"/><path d="m1615.37 624.508 5.35 11.492h-1.23l-1.8-3.781h-4.96l-1.79 3.781h-1.29l5.43-11.492h.29Zm-.15 2.437-1.97 4.164h3.93l-1.96-4.164Zm7.51.555h1.1v1.523c.44-.583.92-1.018 1.45-1.304a3.546 3.546 0 0 1 1.74-.438c.63 0 1.19.162 1.68.485.5.323.86.757 1.1 1.304.23.547.35 1.399.35 2.555V636h-1.09v-4.055c0-.979-.04-1.633-.12-1.961-.13-.562-.38-.984-.74-1.265-.36-.287-.83-.43-1.4-.43-.66 0-1.26.219-1.78.656-.53.438-.87.979-1.04 1.625-.1.422-.15 1.193-.15 2.313V636h-1.1v-8.5Zm11.12-3.156h1.1v3.156h1.74v.938h-1.74V636h-1.1v-7.562h-1.49v-.938h1.49v-3.156Zm5.25-.344a.9.9 0 0 1 .91.906.9.9 0 0 1-.91.899.871.871 0 0 1-.63-.266.848.848 0 0 1-.26-.633c0-.25.08-.463.26-.64a.871.871 0 0 1 .63-.266Zm-.54 3.5h1.1v8.5h-1.1v-8.5Zm3.05 3.703h4.3v.953h-4.3v-.953Zm14.9-3.703v8.5h-1.08v-1.461c-.46.557-.98.977-1.55 1.258-.57.281-1.19.422-1.87.422-1.2 0-2.23-.435-3.08-1.305-.85-.875-1.28-1.937-1.28-3.187 0-1.224.43-2.271 1.29-3.141.86-.87 1.9-1.305 3.11-1.305.69 0 1.32.149 1.89.446.56.296 1.06.742 1.49 1.335V627.5h1.08Zm-4.38.836c-.61 0-1.17.151-1.69.453-.51.297-.92.716-1.23 1.258-.3.542-.45 1.114-.45 1.719 0 .599.15 1.172.46 1.718.3.547.72.974 1.23 1.282a3.28 3.28 0 0 0 1.67.453c.6 0 1.17-.151 1.71-.453.53-.302.94-.711 1.23-1.227.29-.516.44-1.096.44-1.742 0-.985-.33-1.807-.98-2.469-.64-.661-1.44-.992-2.39-.992Zm14.57-.836h1.1v6.773c0 1.193-.11 2.066-.32 2.618a3.363 3.363 0 0 1-1.49 1.804c-.71.422-1.56.633-2.55.633-.73 0-1.39-.104-1.97-.312-.58-.204-1.05-.48-1.42-.828-.36-.344-.7-.849-1-1.516h1.18c.33.562.74.979 1.25 1.25s1.15.406 1.9.406 1.38-.14 1.89-.422c.51-.276.88-.625 1.1-1.047.22-.421.33-1.101.33-2.039v-.437c-.42.521-.92.922-1.51 1.203a4.47 4.47 0 0 1-1.89.414c-.78 0-1.52-.193-2.21-.578a4.242 4.242 0 0 1-1.59-1.57c-.38-.657-.56-1.378-.56-2.164 0-.787.19-1.519.58-2.196.39-.682.93-1.221 1.62-1.617a4.333 4.333 0 0 1 2.19-.594c.63 0 1.22.133 1.77.399.55.26 1.08.692 1.6 1.297V627.5Zm-3.23.836c-.62 0-1.2.151-1.73.453-.53.297-.95.711-1.25 1.242-.3.526-.45 1.097-.45 1.711 0 .932.31 1.703.94 2.313.62.609 1.43.914 2.43.914 1 0 1.81-.302 2.42-.907.61-.604.92-1.398.92-2.382 0-.641-.14-1.211-.42-1.711a3.047 3.047 0 0 0-1.2-1.196 3.311 3.311 0 0 0-1.66-.437Zm14.23 4.844.92.484c-.3.594-.65 1.073-1.05 1.438-.39.364-.84.643-1.33.836-.5.187-1.06.281-1.68.281-1.39 0-2.47-.453-3.25-1.36-.79-.911-1.18-1.94-1.18-3.086a4.56 4.56 0 0 1 1-2.882c.84-1.073 1.96-1.61 3.36-1.61 1.45 0 2.61.55 3.47 1.649.62.776.93 1.744.94 2.906h-7.64c.02.99.34 1.802.94 2.437.61.631 1.37.946 2.26.946.43 0 .85-.076 1.26-.227.41-.151.76-.351 1.05-.601.28-.25.59-.654.93-1.211Zm0-2.289c-.15-.584-.36-1.05-.64-1.399s-.65-.63-1.11-.844c-.45-.213-.94-.32-1.44-.32-.83 0-1.55.268-2.15.805-.44.39-.77.976-.99 1.758h6.33Zm-66.61 16.609h5.59v.945h-2.25V656h-1.1v-7.555h-2.24v-.945Zm14.63 5.68.93.484c-.31.594-.66 1.073-1.05 1.438-.4.364-.84.643-1.34.836-.49.187-1.05.281-1.68.281-1.38 0-2.47-.453-3.25-1.36-.78-.911-1.17-1.94-1.17-3.086 0-1.078.33-2.039.99-2.882.84-1.073 1.96-1.61 3.37-1.61 1.45 0 2.6.55 3.47 1.649.61.776.93 1.744.94 2.906h-7.64c.02.99.33 1.802.94 2.437.61.631 1.36.946 2.26.946.43 0 .85-.076 1.26-.227.41-.151.76-.351 1.04-.601.29-.25.6-.654.93-1.211Zm0-2.289c-.14-.584-.36-1.05-.64-1.399-.27-.349-.64-.63-1.1-.844a3.39 3.39 0 0 0-1.44-.32c-.84 0-1.55.268-2.15.805-.44.39-.77.976-.99 1.758h6.32Zm3.67-3.391h1.08v1.562c.44-.593.93-1.039 1.5-1.335a3.96 3.96 0 0 1 1.88-.446c1.21 0 2.24.435 3.1 1.305.86.87 1.29 1.917 1.29 3.141 0 1.25-.43 2.312-1.28 3.187-.85.87-1.88 1.305-3.08 1.305-.68 0-1.3-.141-1.87-.422a4.804 4.804 0 0 1-1.54-1.258v4.57h-1.08V647.5Zm4.37.836c-.94 0-1.74.331-2.39.992-.65.662-.97 1.484-.97 2.469 0 .646.14 1.226.43 1.742s.7.925 1.24 1.227c.54.302 1.11.453 1.71.453.59 0 1.14-.151 1.66-.453.52-.308.93-.735 1.24-1.282.31-.546.46-1.119.46-1.718 0-.605-.15-1.177-.46-1.719-.3-.542-.71-.961-1.23-1.258a3.272 3.272 0 0 0-1.69-.453Zm15.4-.836v8.5h-1.07v-1.461c-.46.557-.98.977-1.55 1.258-.57.281-1.19.422-1.87.422-1.2 0-2.23-.435-3.08-1.305-.85-.875-1.28-1.937-1.28-3.187 0-1.224.43-2.271 1.29-3.141.86-.87 1.89-1.305 3.1-1.305.7 0 1.33.149 1.89.446.57.296 1.07.742 1.5 1.335V647.5h1.07Zm-4.37.836c-.61 0-1.17.151-1.69.453a3.27 3.27 0 0 0-1.23 1.258c-.3.542-.46 1.114-.46 1.719 0 .599.16 1.172.47 1.718a3.28 3.28 0 0 0 2.9 1.735c.6 0 1.17-.151 1.7-.453.54-.302.95-.711 1.24-1.227.29-.516.44-1.096.44-1.742 0-.985-.33-1.807-.98-2.469-.65-.661-1.44-.992-2.39-.992Zm7.24-.836h7.14v8.5h-1.1v-7.469h-4.94V656h-1.1v-8.5Zm11.07 0v6.289l6.25-6.289h.08v8.5h-1.09v-6.234l-6.2 6.234h-.13v-8.5h1.09Zm12.76 4.695h-.78l-2.43 3.805h-1.18l2.56-3.914c-.64-.078-1.15-.318-1.55-.719-.39-.406-.59-.909-.59-1.508 0-.75.22-1.33.68-1.742.46-.411 1.05-.617 1.79-.617h2.59v8.5h-1.09v-3.805Zm0-3.75h-.72c-.7 0-1.17.045-1.41.133-.24.089-.43.242-.57.461-.14.214-.21.503-.21.867 0 .349.09.638.27.867.19.224.39.362.61.415.23.052.66.078 1.31.078h.72v-2.821Z" fill="#444"/><circle cx="248.5" cy="231.5" r="17.5" fill="#fff"/><path d="m241 230.162 6.295 5.838 9.705-9" stroke="#EE964B" stroke-linecap="round"/><circle cx="294.5" cy="572.5" r="17.5" fill="#fff"/><path d="m287 571.162 6.295 5.838 9.705-9" stroke="#EE964B" stroke-linecap="round"/><circle cx="554.5" cy="401.5" r="17.5" fill="#fff"/><path d="m547 400.162 6.295 5.838 9.705-9" stroke="#EE964B" stroke-linecap="round"/><circle cx="635.5" cy="640.5" r="17.5" fill="#fff"/><path d="m628 639.162 6.295 5.838 9.705-9" stroke="#EE964B" stroke-linecap="round"/><circle cx="858.5" cy="214.5" r="17.5" fill="#fff"/><path d="m851 213.162 6.295 5.838 9.705-9" stroke="#EE964B" stroke-linecap="round"/><circle cx="1188.5" cy="437.5" r="17.5" fill="#fff"/><path d="m1181 436.162 6.3 5.838 9.7-9" stroke="#EE964B" stroke-linecap="round"/><defs><filter id="a" x="0" y="137" width="413" height="413" filterUnits="userSpaceOnUse" color-interpolation-filters="sRGB"><feFlood flood-opacity="0" result="BackgroundImageFix"/><feColorMatrix in="SourceAlpha" values="0 0 0 0 0 0 0 0 0 0 0 0 0 0 0 0 0 0 127 0" result="hardAlpha"/><feOffset dx="10" dy="10"/><feGaussianBlur stdDeviation="25"/><feComposite in2="hardAlpha" operator="out"/><feColorMatrix values="0 0 0 0 0 0 0 0 0 0 0 0 0 0 0 0 0 0 0.09 0"/><feBlend in2="BackgroundImageFix" result="effect1_dropShadow_700_49"/><feColorMatrix in="SourceAlpha" values="0 0 0 0 0 0 0 0 0 0 0 0 0 0 0 0 0 0 127 0" result="hardAlpha"/><feOffset dx="-10" dy="-10"/><feGaussianBlur stdDeviation="25"/><feComposite in2="hardAlpha" operator="out"/><feColorMatrix values="0 0 0 0 0.847059 0 0 0 0 0.847059 0 0 0 0 0.847059 0 0 0 1 0"/><feBlend in2="effect1_dropShadow_700_49" result="effect2_dropShadow_700_49"/><feBlend in="SourceGraphic" in2="effect2_dropShadow_700_49" result="shape"/></filter><filter id="b" x="319" y="0" width="326" height="326" filterUnits="userSpaceOnUse" color-interpolation-filters="sRGB"><feFlood flood-opacity="0" result="BackgroundImageFix"/><feColorMatrix in="SourceAlpha" values="0 0 0 0 0 0 0 0 0 0 0 0 0 0 0 0 0 0 127 0" result="hardAlpha"/><feOffset dx="10" dy="10"/><feGaussianBlur stdDeviation="25"/><feComposite in2="hardAlpha" operator="out"/><feColorMatrix values="0 0 0 0 0 0 0 0 0 0 0 0 0 0 0 0 0 0 0.09 0"/><feBlend in2="BackgroundImageFix" result="effect1_dropShadow_700_49"/><feColorMatrix in="SourceAlpha" values="0 0 0 0 0 0 0 0 0 0 0 0 0 0 0 0 0 0 127 0" result="hardAlpha"/><feOffset dx="-10" dy="-10"/><feGaussianBlur stdDeviation="25"/><feComposite in2="hardAlpha" operator="out"/><feColorMatrix values="0 0 0 0 0.847059 0 0 0 0 0.847059 0 0 0 0 0.847059 0 0 0 1 0"/><feBlend in2="effect1_dropShadow_700_49" result="effect2_dropShadow_700_49"/><feBlend in="SourceGraphic" in2="effect2_dropShadow_700_49" result="shape"/></filter><filter id="c" x="924" y="28" width="338" height="338" filterUnits="userSpaceOnUse" color-interpolation-filters="sRGB"><feFlood flood-opacity="0" result="BackgroundImageFix"/><feColorMatrix in="SourceAlpha" values="0 0 0 0 0 0 0 0 0 0 0 0 0 0 0 0 0 0 127 0" result="hardAlpha"/><feOffset dx="10" dy="10"/><feGaussianBlur stdDeviation="25"/><feComposite in2="hardAlpha" operator="out"/><feColorMatrix values="0 0 0 0 0 0 0 0 0 0 0 0 0 0 0 0 0 0 0.09 0"/><feBlend in2="BackgroundImageFix" result="effect1_dropShadow_700_49"/><feColorMatrix in="SourceAlpha" values="0 0 0 0 0 0 0 0 0 0 0 0 0 0 0 0 0 0 127 0" result="hardAlpha"/><feOffset dx="-10" dy="-10"/><feGaussianBlur stdDeviation="25"/><feComposite in2="hardAlpha" operator="out"/><feColorMatrix values="0 0 0 0 0.847059 0 0 0 0 0.847059 0 0 0 0 0.847059 0 0 0 1 0"/><feBlend in2="effect1_dropShadow_700_49" result="effect2_dropShadow_700_49"/><feBlend in="SourceGraphic" in2="effect2_dropShadow_700_49" result="shape"/></filter><filter id="d" x="1233" y="81" width="314" height="314" filterUnits="userSpaceOnUse" color-interpolation-filters="sRGB"><feFlood flood-opacity="0" result="BackgroundImageFix"/><feColorMatrix in="SourceAlpha" values="0 0 0 0 0 0 0 0 0 0 0 0 0 0 0 0 0 0 127 0" result="hardAlpha"/><feOffset dx="10" dy="10"/><feGaussianBlur stdDeviation="25"/><feComposite in2="hardAlpha" operator="out"/><feColorMatrix values="0 0 0 0 0 0 0 0 0 0 0 0 0 0 0 0 0 0 0.09 0"/><feBlend in2="BackgroundImageFix" result="effect1_dropShadow_700_49"/><feColorMatrix in="SourceAlpha" values="0 0 0 0 0 0 0 0 0 0 0 0 0 0 0 0 0 0 127 0" result="hardAlpha"/><feOffset dx="-10" dy="-10"/><feGaussianBlur stdDeviation="25"/><feComposite in2="hardAlpha" operator="out"/><feColorMatrix values="0 0 0 0 0.847059 0 0 0 0 0.847059 0 0 0 0 0.847059 0 0 0 1 0"/><feBlend in2="effect1_dropShadow_700_49" result="effect2_dropShadow_700_49"/><feBlend in="SourceGraphic" in2="effect2_dropShadow_700_49" result="shape"/></filter><filter id="e" x="725" y="434" width="410" height="410" filterUnits="userSpaceOnUse" color-interpolation-filters="sRGB"><feFlood flood-opacity="0" result="BackgroundImageFix"/><feColorMatrix in="SourceAlpha" values="0 0 0 0 0 0 0 0 0 0 0 0 0 0 0 0 0 0 127 0" result="hardAlpha"/><feOffset dx="10" dy="10"/><feGaussianBlur stdDeviation="25"/><feComposite in2="hardAlpha" operator="out"/><feColorMatrix values="0 0 0 0 0 0 0 0 0 0 0 0 0 0 0 0 0 0 0.09 0"/><feBlend in2="BackgroundImageFix" result="effect1_dropShadow_700_49"/><feColorMatrix in="SourceAlpha" values="0 0 0 0 0 0 0 0 0 0 0 0 0 0 0 0 0 0 127 0" result="hardAlpha"/><feOffset dx="-10" dy="-10"/><feGaussianBlur stdDeviation="25"/><feComposite in2="hardAlpha" operator="out"/><feColorMatrix values="0 0 0 0 0.847059 0 0 0 0 0.847059 0 0 0 0 0.847059 0 0 0 1 0"/><feBlend in2="effect1_dropShadow_700_49" result="effect2_dropShadow_700_49"/><feBlend in="SourceGraphic" in2="effect2_dropShadow_700_49" result="shape"/></filter><filter id="f" x="1200" y="487" width="315" height="315" filterUnits="userSpaceOnUse" color-interpolation-filters="sRGB"><feFlood flood-opacity="0" result="BackgroundImageFix"/><feColorMatrix in="SourceAlpha" values="0 0 0 0 0 0 0 0 0 0 0 0 0 0 0 0 0 0 127 0" result="hardAlpha"/><feOffset dx="10" dy="10"/><feGaussianBlur stdDeviation="25"/><feComposite in2="hardAlpha" operator="out"/><feColorMatrix values="0 0 0 0 0 0 0 0 0 0 0 0 0 0 0 0 0 0 0.09 0"/><feBlend in2="BackgroundImageFix" result="effect1_dropShadow_700_49"/><feColorMatrix in="SourceAlpha" values="0 0 0 0 0 0 0 0 0 0 0 0 0 0 0 0 0 0 127 0" result="hardAlpha"/><feOffset dx="-10" dy="-10"/><feGaussianBlur stdDeviation="25"/><feComposite in2="hardAlpha" operator="out"/><feColorMatrix values="0 0 0 0 0.847059 0 0 0 0 0.847059 0 0 0 0 0.847059 0 0 0 1 0"/><feBlend in2="effect1_dropShadow_700_49" result="effect2_dropShadow_700_49"/><feBlend in="SourceGraphic" in2="effect2_dropShadow_700_49" result="shape"/></filter><filter id="g" x="1517" y="30" width="259" height="259" filterUnits="userSpaceOnUse" color-interpolation-filters="sRGB"><feFlood flood-opacity="0" result="BackgroundImageFix"/><feColorMatrix in="SourceAlpha" values="0 0 0 0 0 0 0 0 0 0 0 0 0 0 0 0 0 0 127 0" result="hardAlpha"/><feOffset dx="10" dy="10"/><feGaussianBlur stdDeviation="25"/><feComposite in2="hardAlpha" operator="out"/><feColorMatrix values="0 0 0 0 0 0 0 0 0 0 0 0 0 0 0 0 0 0 0.09 0"/><feBlend in2="BackgroundImageFix" result="effect1_dropShadow_700_49"/><feColorMatrix in="SourceAlpha" values="0 0 0 0 0 0 0 0 0 0 0 0 0 0 0 0 0 0 127 0" result="hardAlpha"/><feOffset dx="-10" dy="-10"/><feGaussianBlur stdDeviation="25"/><feComposite in2="hardAlpha" operator="out"/><feColorMatrix values="0 0 0 0 0.847059 0 0 0 0 0.847059 0 0 0 0 0.847059 0 0 0 1 0"/><feBlend in2="effect1_dropShadow_700_49" result="effect2_dropShadow_700_49"/><feBlend in="SourceGraphic" in2="effect2_dropShadow_700_49" result="shape"/></filter><filter id="h" x="1513" y="508" width="263" height="263" filterUnits="userSpaceOnUse" color-interpolation-filters="sRGB"><feFlood flood-opacity="0" result="BackgroundImageFix"/><feColorMatrix in="SourceAlpha" values="0 0 0 0 0 0 0 0 0 0 0 0 0 0 0 0 0 0 127 0" result="hardAlpha"/><feOffset dx="10" dy="10"/><feGaussianBlur stdDeviation="25"/><feComposite in2="hardAlpha" operator="out"/><feColorMatrix values="0 0 0 0 0 0 0 0 0 0 0 0 0 0 0 0 0 0 0.09 0"/><feBlend in2="BackgroundImageFix" result="effect1_dropShadow_700_49"/><feColorMatrix in="SourceAlpha" values="0 0 0 0 0 0 0 0 0 0 0 0 0 0 0 0 0 0 127 0" result="hardAlpha"/><feOffset dx="-10" dy="-10"/><feGaussianBlur stdDeviation="25"/><feComposite in2="hardAlpha" operator="out"/><feColorMatrix values="0 0 0 0 0.847059 0 0 0 0 0.847059 0 0 0 0 0.847059 0 0 0 1 0"/><feBlend in2="effect1_dropShadow_700_49" result="effect2_dropShadow_700_49"/><feBlend in="SourceGraphic" in2="effect2_dropShadow_700_49" result="shape"/></filter></defs></svg>