<svg width="39" height="41" fill="none" xmlns="http://www.w3.org/2000/svg"><path d="M31.271 40.083a6.776 6.776 0 0 1-6.625-8.522l-12.26-7.007a6.842 6.842 0 1 1 1.129-8.754l11.129-6.363a6.841 6.841 0 0 1-.227-1.666 6.915 6.915 0 1 1 2.236 5.033l-12.045 6.883a6.548 6.548 0 0 1-.212 1.504l12.257 7.005a6.845 6.845 0 1 1 4.618 11.887Zm0-9.791a2.937 2.937 0 1 0 0 5.875 2.937 2.937 0 0 0 0-5.875Zm-23.5-13.709a2.938 2.938 0 1 0 0 5.875 2.938 2.938 0 0 0 0-5.875Zm23.5-11.75a2.937 2.937 0 1 0 0 5.875 2.937 2.937 0 0 0 0-5.875Z" fill="#232323"/></svg>