<svg width="30" height="30" fill="none" xmlns="http://www.w3.org/2000/svg"><path d="m0 30 1.353-4.948c.224-.822.457-1.642.665-2.47a.742.742 0 0 0-.051-.491C-1.871 15.053.422 6.382 7.274 2.185 10.214.383 13.434-.35 16.847.158c6.172.922 10.417 4.38 12.27 10.311 1.863 5.965.288 11.23-4.28 15.512-2.232 2.094-4.945 3.275-7.98 3.66-3.034.385-5.926-.124-8.65-1.52a.913.913 0 0 0-.707-.076c-2.401.64-4.803 1.274-7.206 1.901-.079.021-.16.03-.294.054Zm3.564-3.524c.094-.017.132-.023.17-.033 1.367-.359 2.736-.712 4.1-1.083a.885.885 0 0 1 .756.106c2.745 1.636 5.702 2.174 8.826 1.535 6.61-1.354 10.85-7.605 9.72-14.253-.96-5.643-5.832-9.964-11.532-10.205-3.152-.132-5.987.771-8.424 2.781-2.786 2.296-4.307 5.278-4.529 8.883-.165 2.655.503 5.118 1.938 7.36.166.26.2.482.114.779-.388 1.358-.753 2.723-1.139 4.13Z" fill="#F9F9F9"/><path d="M10.166 8.045c.644-.16.951.22 1.173.79.336.873.703 1.734 1.074 2.593.128.3.116.563-.077.82-.3.399-.59.805-.904 1.194-.19.234-.21.45-.055.71 1.21 2.054 2.907 3.536 5.124 4.42.304.122.544.065.747-.187.364-.456.736-.904 1.097-1.361.265-.337.417-.42.797-.246 1.049.48 2.088.979 3.117 1.498.127.064.241.299.239.453-.024 1.584-.49 2.343-2.176 3.053-.957.402-1.95.307-2.937.032-3.58-.998-6.218-3.25-8.328-6.22-.657-.922-1.246-1.873-1.497-2.991-.361-1.61.033-3.003 1.219-4.17.38-.378.844-.463 1.387-.388Z" fill="#F9F9F9"/></svg>